<svg width="70" height="70" viewBox="0 0 70 70" fill="none" xmlns="http://www.w3.org/2000/svg">
<rect x="1" y="1" width="68" height="68" rx="7" fill="#B7E0AA" stroke="white" stroke-width="2"/>
<rect x="10" y="14" width="51" height="30.3113" rx="3" fill="#AFA4A4"/>
<rect x="11.9246" y="16.4058" width="47.1509" height="25.7406" fill="white"/>
<path d="M40.0294 45.7549H30.4511C29.5794 45.7549 28.8081 46.3195 28.5447 47.1504L27.9061 49.1646C27.4972 50.4541 28.4598 51.769 29.8125 51.769H40.6848C42.0439 51.769 43.0072 50.4426 42.5866 49.1502L41.9312 47.136C41.6632 46.3124 40.8955 45.7549 40.0294 45.7549Z" fill="#AFA4A4"/>
<rect x="11.9246" y="16.165" width="47.1509" height="2.64623" fill="#D9D9D9"/>
<circle cx="13.2475" cy="17.7292" r="0.5" fill="#D9D9D9" stroke="black" stroke-width="0.683962"/>
<circle cx="15.4128" cy="17.7292" r="0.5" fill="#D9D9D9" stroke="black" stroke-width="0.683962"/>
<circle cx="17.5778" cy="17.7292" r="0.5" fill="#D9D9D9" stroke="black" stroke-width="0.683962"/>
<mask id="path-9-inside-1_777_56" fill="white">
<path d="M45.8442 18.5708H57.7684V35.8754H45.8442V18.5708Z"/>
</mask>
<path d="M45.8442 18.5708H57.7684V35.8754H45.8442V18.5708Z" fill="#D9D9D9"/>
<path d="M57.7684 35.8754V36.8754H58.7684V35.8754H57.7684ZM45.8442 35.8754H44.8442V36.8754H45.8442V35.8754ZM56.7684 18.5708V35.8754H58.7684V18.5708H56.7684ZM57.7684 34.8754H45.8442V36.8754H57.7684V34.8754ZM46.8442 35.8754V18.5708H44.8442V35.8754H46.8442Z" fill="black" mask="url(#path-9-inside-1_777_56)"/>
<rect x="47.1528" y="21.6235" width="9.30666" height="0.727082" fill="#7AC3D3"/>
<rect x="47.1528" y="20.0249" width="3.92625" height="0.727082" fill="#7AC3D3"/>
<rect x="47.1528" y="22.6421" width="9.30666" height="1.01792" fill="#7AC3D3"/>
<rect x="47.1528" y="24.0967" width="9.30666" height="0.727082" fill="#7AC3D3"/>
<rect x="47.1528" y="25.1147" width="9.30666" height="0.872499" fill="#7AC3D3"/>
<rect x="47.1528" y="26.4229" width="9.30666" height="0.872499" fill="#7AC3D3"/>
<rect x="47.1528" y="27.7319" width="9.30666" height="0.727082" fill="#7AC3D3"/>
<rect x="47.1528" y="29.041" width="9.30666" height="0.727082" fill="#7AC3D3"/>
<rect x="47.1528" y="30.2041" width="9.30666" height="0.872499" fill="#7AC3D3"/>
<rect x="47.1528" y="31.5132" width="9.30666" height="0.581666" fill="#7AC3D3"/>
<path d="M51.2127 34.3971C51.316 34.3968 51.4153 34.3565 51.491 34.2844L52.2299 34.7179C52.2052 34.8172 52.2161 34.9223 52.2607 35.0141C52.3053 35.1058 52.3805 35.178 52.4727 35.2174C52.5649 35.2568 52.6679 35.2608 52.7627 35.2287C52.8575 35.1965 52.9379 35.1304 52.9891 35.0424C53.0404 34.9544 53.059 34.8504 53.0416 34.7494C53.0243 34.6485 52.9721 34.5573 52.8946 34.4926C52.8171 34.428 52.7195 34.3941 52.6197 34.3973C52.5199 34.4004 52.4245 34.4403 52.351 34.5098L51.6121 34.0763C51.6199 34.046 51.6241 34.0146 51.6248 33.9833L52.3508 33.5573C52.4207 33.6226 52.5103 33.6612 52.6047 33.6667C52.6991 33.6722 52.7924 33.6442 52.869 33.5874C52.9456 33.5306 53.0009 33.4485 53.0256 33.3549C53.0502 33.2612 53.0427 33.1617 53.0044 33.073C52.966 32.9843 52.8992 32.9119 52.8149 32.8679C52.7307 32.8238 52.6343 32.8108 52.5419 32.8311C52.4495 32.8514 52.3667 32.9037 52.3074 32.9792C52.248 33.0547 52.2158 33.1489 52.2161 33.2459C52.2166 33.2808 52.2212 33.3156 52.2299 33.3492L51.559 33.7427C51.52 33.6809 51.4661 33.6306 51.4026 33.5966C51.339 33.5627 51.2679 33.5463 51.1962 33.5491C51.1246 33.5519 51.0549 33.5738 50.994 33.6126C50.9331 33.6515 50.8831 33.7059 50.8489 33.7705C50.8147 33.8352 50.7975 33.9079 50.7989 33.9814C50.8003 34.055 50.8204 34.1269 50.8571 34.1901C50.8938 34.2533 50.9459 34.3056 51.0082 34.3419C51.0706 34.3782 51.1411 34.3972 51.2127 34.3971Z" fill="#F900FE"/>
<g clip-path="url(#clip0_777_56)" filter="url(#filter0_d_777_56)">
<path d="M49.6694 39.0559C49.6968 39.056 49.7234 39.0485 49.7459 39.0346C49.7684 39.0206 49.7855 39.0007 49.7951 38.9777L51.0834 35.8492C51.0916 35.828 51.093 35.8053 51.0876 35.7835C51.0822 35.7617 51.0701 35.7417 51.0528 35.7257C51.0354 35.7097 51.0135 35.6984 50.9894 35.693C50.9653 35.6876 50.94 35.6884 50.9164 35.6952L47.4415 36.8595C47.4155 36.8683 47.3931 36.8842 47.3776 36.905C47.3621 36.9257 47.3541 36.9503 47.3548 36.9753C47.3556 37.0004 47.365 37.0246 47.3817 37.0445C47.3984 37.0645 47.4217 37.0793 47.4482 37.0869L48.5655 37.396L47.4562 38.3943C47.4313 38.4169 47.4174 38.4474 47.4174 38.4791C47.4174 38.5109 47.4313 38.5414 47.4562 38.5639L47.8919 38.9561C47.9044 38.9672 47.9192 38.976 47.9355 38.982C47.9518 38.988 47.9692 38.991 47.9868 38.9909C48.0044 38.991 48.0218 38.988 48.0381 38.982C48.0544 38.976 48.0692 38.9672 48.0817 38.9561L49.195 37.9541L49.5425 38.9705C49.5506 38.9947 49.567 39.0159 49.5893 39.0313C49.6116 39.0466 49.6387 39.0552 49.6668 39.0559H49.6694ZM49.2565 37.6125C49.2389 37.6124 49.2214 37.6154 49.2052 37.6214C49.1889 37.6274 49.1741 37.6362 49.1616 37.6474L47.9868 38.7047L47.7422 38.4785L48.913 37.4249C48.9292 37.4102 48.9409 37.3921 48.9471 37.3721C48.9532 37.3522 48.9536 37.3312 48.948 37.3111C48.9425 37.2911 48.9314 37.2726 48.9156 37.2576C48.8999 37.2425 48.8801 37.2314 48.8582 37.2252L47.9053 36.9606L50.736 36.0115L49.6815 38.5615L49.3848 37.6955C49.3781 37.6757 49.3659 37.6577 49.3493 37.6434C49.3326 37.6291 49.3122 37.6188 49.2899 37.6137L49.2565 37.6125Z" fill="white"/>
</g>
<rect x="15.552" y="24.1226" width="11.4627" height="23.9255" rx="3.5" fill="#D9D9D9" stroke="black"/>
<rect x="15.801" y="24.9946" width="10.8396" height="21.8068" rx="4.5" fill="#D9D9D9" stroke="black"/>
<path d="M16.0488 30.4897C16.0488 29.932 16.5009 29.48 17.0585 29.48H21.1132C21.6889 29.48 22.1556 29.9467 22.1556 30.5223C22.1556 31.098 21.6889 31.5647 21.1132 31.5647H18.4221C18.1266 31.5647 17.8321 31.5997 17.5449 31.6692L16.2899 31.9725L16.772 31.5193C16.3801 31.5439 16.0488 31.2327 16.0488 30.8401V30.4897Z" fill="#D9D9D9"/>
<path d="M17.9586 31.0901L18.1252 30.9336L16.7407 31.0203C16.6367 31.0268 16.5488 30.9443 16.5488 30.8401V30.4897C16.5488 30.2082 16.777 29.98 17.0585 29.98H21.1132C21.4128 29.98 21.6556 30.2228 21.6556 30.5223C21.6556 30.8218 21.4128 31.0647 21.1132 31.0647H18.4221C18.2671 31.0647 18.1124 31.0732 17.9586 31.0901Z" stroke="black" stroke-opacity="0.48"/>
<path d="M26.1436 36.2244C26.1436 35.666 25.6909 35.2134 25.1326 35.2134H20.8299C20.2542 35.2134 19.7876 35.68 19.7876 36.2557C19.7876 36.8314 20.2542 37.2981 20.8299 37.2981H23.6893C23.9864 37.2981 24.2825 37.332 24.5719 37.3992L25.8927 37.7059L25.3909 37.2527C25.799 37.2773 26.1436 36.9529 26.1436 36.544V36.2244Z" fill="#B5ECAF"/>
<path d="M24.1707 36.8245L23.9974 36.6679L25.4209 36.7536C25.5417 36.7609 25.6436 36.665 25.6436 36.544V36.2244C25.6436 35.9422 25.4148 35.7134 25.1326 35.7134H20.8299C20.5304 35.7134 20.2876 35.9562 20.2876 36.2557C20.2876 36.5552 20.5304 36.7981 20.8299 36.7981H23.6893C23.8502 36.7981 24.0109 36.8069 24.1707 36.8245Z" stroke="black" stroke-opacity="0.48"/>
<path d="M16.6721 41.3331C16.6721 40.7751 17.1245 40.3228 17.6825 40.3228H21.8612C22.4368 40.3228 22.9035 40.7894 22.9035 41.3651C22.9035 41.9408 22.4368 42.4074 21.8612 42.4074H19.0859C18.7896 42.4074 18.4943 42.4419 18.2059 42.5102L16.9181 42.8153L17.41 42.3621C17.01 42.3867 16.6721 42.0689 16.6721 41.6681V41.3331Z" fill="#D9D9D9"/>
<path d="M18.6134 41.9334L18.7833 41.7768L17.3794 41.8631C17.267 41.87 17.1721 41.7807 17.1721 41.6681V41.3331C17.1721 41.0513 17.4006 40.8228 17.6825 40.8228H21.8612C22.1607 40.8228 22.4035 41.0656 22.4035 41.3651C22.4035 41.6646 22.1607 41.9074 21.8612 41.9074H19.0859C18.9279 41.9074 18.7702 41.9161 18.6134 41.9334Z" stroke="black" stroke-opacity="0.48"/>
<defs>
<filter id="filter0_d_777_56" x="42.8066" y="31.1694" width="14.8113" height="14.3301" filterUnits="userSpaceOnUse" color-interpolation-filters="sRGB">
<feFlood flood-opacity="0" result="BackgroundImageFix"/>
<feColorMatrix in="SourceAlpha" type="matrix" values="0 0 0 0 0 0 0 0 0 0 0 0 0 0 0 0 0 0 127 0" result="hardAlpha"/>
<feOffset dx="1" dy="1"/>
<feGaussianBlur stdDeviation="2.5"/>
<feComposite in2="hardAlpha" operator="out"/>
<feColorMatrix type="matrix" values="0 0 0 0 0 0 0 0 0 0 0 0 0 0 0 0 0 0 0.7 0"/>
<feBlend mode="normal" in2="BackgroundImageFix" result="effect1_dropShadow_777_56"/>
<feBlend mode="normal" in="SourceGraphic" in2="effect1_dropShadow_777_56" result="shape"/>
</filter>
<clipPath id="clip0_777_56">
<rect width="4.81132" height="4.33019" fill="white" transform="matrix(-1 0 0 1 51.6179 35.1694)"/>
</clipPath>
</defs>
</svg>
