<svg width="70" height="70" viewBox="0 0 70 70" fill="none" xmlns="http://www.w3.org/2000/svg">
<rect x="1" y="1" width="68" height="68" rx="7" fill="#B7E0AA" stroke="white" stroke-width="2"/>
<rect x="10" y="14" width="51" height="30.3675" rx="3" fill="#AFA4A4"/>
<rect x="11.7437" y="15.8887" width="47.5128" height="26.1538" fill="white"/>
<path d="M40.8884 45.6748H31.3712C30.5004 45.6748 29.7297 46.2382 29.4655 47.068L28.8423 49.0253C28.4315 50.3152 29.3942 51.6321 30.748 51.6321H41.528C42.8882 51.6321 43.8516 50.3037 43.4291 49.0108L42.7894 47.0535C42.5207 46.2311 41.7536 45.6748 40.8884 45.6748Z" fill="#AFA4A4"/>
<rect x="11.7437" y="15.8887" width="47.5128" height="2.76068" fill="#D9D9D9"/>
<mask id="path-6-inside-1_777_57" fill="white">
<ellipse cx="13.5812" cy="17.7265" rx="0.581197" ry="0.726496"/>
</mask>
<ellipse cx="13.5812" cy="17.7265" rx="0.581197" ry="0.726496" fill="#D9D9D9"/>
<path d="M13.1624 17.7265C13.1624 17.716 13.165 17.6734 13.2113 17.6155C13.2591 17.5558 13.3835 17.453 13.5812 17.453V19.453C14.6512 19.453 15.1624 18.4602 15.1624 17.7265H13.1624ZM13.5812 17.453C13.7789 17.453 13.9033 17.5558 13.9511 17.6155C13.9974 17.6734 14 17.716 14 17.7265H12C12 18.4602 12.5112 19.453 13.5812 19.453V17.453ZM14 17.7265C14 17.737 13.9974 17.7796 13.9511 17.8375C13.9033 17.8972 13.7789 18 13.5812 18V16C12.5112 16 12 16.9927 12 17.7265H14ZM13.5812 18C13.3835 18 13.2591 17.8972 13.2113 17.8375C13.165 17.7796 13.1624 17.737 13.1624 17.7265H15.1624C15.1624 16.9927 14.6512 16 13.5812 16V18Z" fill="black" mask="url(#path-6-inside-1_777_57)"/>
<mask id="path-8-inside-2_777_57" fill="white">
<ellipse cx="15.5812" cy="17.7265" rx="0.581197" ry="0.726496"/>
</mask>
<ellipse cx="15.5812" cy="17.7265" rx="0.581197" ry="0.726496" fill="#D9D9D9"/>
<path d="M15.1624 17.7265C15.1624 17.716 15.165 17.6734 15.2113 17.6155C15.2591 17.5558 15.3835 17.453 15.5812 17.453V19.453C16.6512 19.453 17.1624 18.4602 17.1624 17.7265H15.1624ZM15.5812 17.453C15.7789 17.453 15.9033 17.5558 15.9511 17.6155C15.9974 17.6734 16 17.716 16 17.7265H14C14 18.4602 14.5112 19.453 15.5812 19.453V17.453ZM16 17.7265C16 17.737 15.9974 17.7796 15.9511 17.8375C15.9033 17.8972 15.7789 18 15.5812 18V16C14.5112 16 14 16.9927 14 17.7265H16ZM15.5812 18C15.3835 18 15.2591 17.8972 15.2113 17.8375C15.165 17.7796 15.1624 17.737 15.1624 17.7265H17.1624C17.1624 16.9927 16.6512 16 15.5812 16V18Z" fill="black" mask="url(#path-8-inside-2_777_57)"/>
<mask id="path-10-inside-3_777_57" fill="white">
<ellipse cx="17.5812" cy="17.7265" rx="0.581197" ry="0.726496"/>
</mask>
<ellipse cx="17.5812" cy="17.7265" rx="0.581197" ry="0.726496" fill="#D9D9D9"/>
<path d="M17.1624 17.7265C17.1624 17.716 17.165 17.6734 17.2113 17.6155C17.2591 17.5558 17.3835 17.453 17.5812 17.453V19.453C18.6512 19.453 19.1624 18.4602 19.1624 17.7265H17.1624ZM17.5812 17.453C17.7789 17.453 17.9033 17.5558 17.9511 17.6155C17.9974 17.6734 18 17.716 18 17.7265H16C16 18.4602 16.5112 19.453 17.5812 19.453V17.453ZM18 17.7265C18 17.737 17.9974 17.7796 17.9511 17.8375C17.9033 17.8972 17.7789 18 17.5812 18V16C16.5112 16 16 16.9927 16 17.7265H18ZM17.5812 18C17.3835 18 17.2591 17.8972 17.2113 17.8375C17.165 17.7796 17.1624 17.737 17.1624 17.7265H19.1624C19.1624 16.9927 18.6512 16 17.5812 16V18Z" fill="black" mask="url(#path-10-inside-3_777_57)"/>
<mask id="path-12-inside-4_777_57" fill="white">
<path d="M43.3921 18.77H58.7631V40.7542H43.3921V18.77Z"/>
</mask>
<path d="M43.3921 18.77H58.7631V40.7542H43.3921V18.77Z" fill="#D9D9D9"/>
<path d="M58.7631 40.7542V41.7542H59.7631V40.7542H58.7631ZM43.3921 40.7542H42.3921V41.7542H43.3921V40.7542ZM57.7631 18.77V40.7542H59.7631V18.77H57.7631ZM58.7631 39.7542H43.3921V41.7542H58.7631V39.7542ZM44.3921 40.7542V18.77H42.3921V40.7542H44.3921Z" fill="black" mask="url(#path-12-inside-4_777_57)"/>
<rect x="45.3582" y="22.5234" width="11.6176" height="0.893665" fill="#7AC3D3"/>
<rect x="45.3582" y="20.7363" width="4.82579" height="0.893665" fill="#7AC3D3"/>
<rect x="45.3582" y="24.1323" width="11.6176" height="0.893665" fill="#7AC3D3"/>
<rect x="45.3582" y="25.562" width="11.6176" height="1.0724" fill="#7AC3D3"/>
<rect x="45.3582" y="27.1709" width="11.6176" height="1.0724" fill="#7AC3D3"/>
<rect x="45.3582" y="28.7793" width="11.6176" height="1.0724" fill="#7AC3D3"/>
<rect x="45.3582" y="30.3877" width="11.6176" height="0.893665" fill="#7AC3D3"/>
<rect x="45.3582" y="31.9966" width="11.6176" height="0.893665" fill="#7AC3D3"/>
<rect x="45.3582" y="33.4268" width="11.6176" height="1.0724" fill="#7AC3D3"/>
<rect x="45.3582" y="35.0347" width="11.6176" height="1.0724" fill="#7AC3D3"/>
<g clip-path="url(#clip0_777_57)" filter="url(#filter0_d_777_57)">
<path d="M49.3974 43.5058C49.4395 43.506 49.4807 43.4941 49.5153 43.4719C49.55 43.4496 49.5764 43.418 49.5912 43.3814L51.5782 38.4031C51.5908 38.3695 51.593 38.3333 51.5846 38.2986C51.5763 38.2639 51.5577 38.232 51.5309 38.2066C51.5042 38.1812 51.4703 38.1631 51.4332 38.1546C51.396 38.146 51.357 38.1472 51.3206 38.1581L45.9613 40.0108C45.9211 40.0248 45.8867 40.0501 45.8627 40.0831C45.8387 40.1161 45.8265 40.1553 45.8276 40.1951C45.8287 40.2349 45.8432 40.2734 45.869 40.3052C45.8949 40.337 45.9307 40.3606 45.9716 40.3726L47.6948 40.8645L45.984 42.4531C45.9456 42.489 45.924 42.5375 45.924 42.5881C45.924 42.6386 45.9456 42.6871 45.984 42.723L46.656 43.347C46.6752 43.3647 46.6981 43.3787 46.7232 43.3883C46.7483 43.3978 46.7752 43.4026 46.8023 43.4025C46.8294 43.4026 46.8563 43.3978 46.8814 43.3883C46.9065 43.3787 46.9294 43.3647 46.9486 43.347L48.6657 41.7526L49.2016 43.3699C49.2141 43.4084 49.2394 43.4422 49.2738 43.4666C49.3082 43.491 49.35 43.5047 49.3933 43.5058H49.3974ZM48.7605 41.209C48.7334 41.2089 48.7065 41.2137 48.6814 41.2232C48.6562 41.2327 48.6334 41.2468 48.6141 41.2645L46.8023 42.9469L46.4251 42.5871L48.2307 40.9104C48.2557 40.8871 48.2738 40.8582 48.2833 40.8265C48.2928 40.7948 48.2933 40.7614 48.2848 40.7295C48.2763 40.6975 48.2591 40.6682 48.2348 40.6442C48.2106 40.6203 48.18 40.6025 48.1462 40.5927L46.6766 40.1716L51.0423 38.6614L49.416 42.7192L48.9584 41.3411C48.9481 41.3095 48.9292 41.2809 48.9036 41.2581C48.878 41.2353 48.8464 41.2191 48.812 41.2109L48.7605 41.209Z" fill="black"/>
</g>
<g clip-path="url(#clip1_777_57)">
<path d="M54.7355 36.6209C54.7258 36.5923 54.7079 36.5671 54.6841 36.5485C54.6602 36.53 54.6315 36.5188 54.6014 36.5164L53.72 36.4463L53.3386 35.6021C53.3265 35.5749 53.3067 35.5518 53.2817 35.5356C53.2568 35.5194 53.2276 35.5108 53.1978 35.5107C53.1681 35.5107 53.1389 35.5193 53.1139 35.5355C53.0889 35.5517 53.0691 35.5748 53.057 35.6019L52.6756 36.4463L51.7942 36.5164C51.7646 36.5187 51.7363 36.5295 51.7127 36.5476C51.6891 36.5656 51.6712 36.59 51.6611 36.6179C51.651 36.6459 51.6491 36.6761 51.6558 36.7051C51.6624 36.734 51.6773 36.7605 51.6985 36.7812L52.3499 37.4161L52.1195 38.4135C52.1125 38.4437 52.1148 38.4753 52.1259 38.5042C52.1371 38.5331 52.1567 38.558 52.1822 38.5756C52.2077 38.5932 52.2379 38.6028 52.2689 38.603C52.2999 38.6033 52.3303 38.5942 52.356 38.5769L53.1978 38.0158L54.0396 38.5769C54.0659 38.5944 54.0969 38.6034 54.1285 38.6027C54.1602 38.602 54.1908 38.5917 54.2163 38.5731C54.2419 38.5545 54.2611 38.5285 54.2714 38.4986C54.2817 38.4687 54.2827 38.4364 54.2741 38.406L53.9913 37.4166L54.6926 36.7855C54.7385 36.7441 54.7553 36.6795 54.7355 36.6209Z" fill="#F11DF4"/>
</g>
<defs>
<filter id="filter0_d_777_57" x="40.9824" y="33.3218" width="17.4204" height="16.8906" filterUnits="userSpaceOnUse" color-interpolation-filters="sRGB">
<feFlood flood-opacity="0" result="BackgroundImageFix"/>
<feColorMatrix in="SourceAlpha" type="matrix" values="0 0 0 0 0 0 0 0 0 0 0 0 0 0 0 0 0 0 127 0" result="hardAlpha"/>
<feOffset dx="1" dy="1"/>
<feGaussianBlur stdDeviation="2.5"/>
<feComposite in2="hardAlpha" operator="out"/>
<feColorMatrix type="matrix" values="0 0 0 0 0 0 0 0 0 0 0 0 0 0 0 0 0 0 0.7 0"/>
<feBlend mode="normal" in2="BackgroundImageFix" result="effect1_dropShadow_777_57"/>
<feBlend mode="normal" in="SourceGraphic" in2="effect1_dropShadow_777_57" result="shape"/>
</filter>
<clipPath id="clip0_777_57">
<rect width="7.4205" height="6.89046" fill="white" transform="matrix(-1 0 0 1 52.4028 37.3218)"/>
</clipPath>
<clipPath id="clip1_777_57">
<rect width="3.71025" height="3.71025" fill="white" transform="translate(51.3428 35.2017)"/>
</clipPath>
</defs>
</svg>
