<svg width="70" height="70" viewBox="0 0 70 70" fill="none" xmlns="http://www.w3.org/2000/svg">
<rect x="1" y="1" width="68" height="68" rx="7" fill="#B7E0AA" stroke="white" stroke-width="2"/>
<rect x="10" y="14" width="51" height="30.3113" rx="3" fill="#AFA4A4"/>
<path d="M40.2882 45.7544H30.6731C29.8102 45.7544 29.0446 46.3078 28.774 47.1272L28.1882 48.9008C27.7609 50.1948 28.7246 51.528 30.0873 51.528H40.8894C42.2587 51.528 43.2231 50.1828 42.7835 48.8859L42.1823 47.1124C41.9072 46.3006 41.1453 45.7544 40.2882 45.7544Z" fill="#AFA4A4"/>
<rect x="11.9246" y="15.9238" width="47.1509" height="26.2217" fill="white"/>
<rect x="11.9246" y="15.9238" width="47.1509" height="3.36792" fill="#D9D9D9"/>
<mask id="path-6-inside-1_777_55" fill="white">
<ellipse cx="13.2477" cy="17.6084" rx="0.601415" ry="0.721698"/>
</mask>
<ellipse cx="13.2477" cy="17.6084" rx="0.601415" ry="0.721698" fill="#D9D9D9"/>
<path d="M12.8491 17.6084C12.8491 17.586 12.8561 17.5368 12.9047 17.4786C12.955 17.4182 13.0719 17.3301 13.2477 17.3301V19.3301C14.2951 19.3301 14.8491 18.3808 14.8491 17.6084H12.8491ZM13.2477 17.3301C13.4234 17.3301 13.5403 17.4182 13.5906 17.4786C13.6392 17.5368 13.6462 17.586 13.6462 17.6084H11.6462C11.6462 18.3808 12.2002 19.3301 13.2477 19.3301V17.3301ZM13.6462 17.6084C13.6462 17.6309 13.6392 17.68 13.5906 17.7383C13.5403 17.7987 13.4234 17.8867 13.2477 17.8867V15.8867C12.2002 15.8867 11.6462 16.836 11.6462 17.6084H13.6462ZM13.2477 17.8867C13.0719 17.8867 12.955 17.7987 12.9047 17.7383C12.8561 17.68 12.8491 17.6309 12.8491 17.6084H14.8491C14.8491 16.836 14.2951 15.8867 13.2477 15.8867V17.8867Z" fill="#EC89AC" mask="url(#path-6-inside-1_777_55)"/>
<mask id="path-8-inside-2_777_55" fill="white">
<ellipse cx="14.9315" cy="17.6084" rx="0.601415" ry="0.721698"/>
</mask>
<ellipse cx="14.9315" cy="17.6084" rx="0.601415" ry="0.721698" fill="#D9D9D9"/>
<path d="M14.5329 17.6084C14.5329 17.586 14.54 17.5368 14.5885 17.4786C14.6389 17.4182 14.7558 17.3301 14.9315 17.3301V19.3301C15.9789 19.3301 16.5329 18.3808 16.5329 17.6084H14.5329ZM14.9315 17.3301C15.1072 17.3301 15.2241 17.4182 15.2744 17.4786C15.323 17.5368 15.3301 17.586 15.3301 17.6084H13.3301C13.3301 18.3808 13.8841 19.3301 14.9315 19.3301V17.3301ZM15.3301 17.6084C15.3301 17.6309 15.323 17.68 15.2744 17.7383C15.2241 17.7987 15.1072 17.8867 14.9315 17.8867V15.8867C13.8841 15.8867 13.3301 16.836 13.3301 17.6084H15.3301ZM14.9315 17.8867C14.7558 17.8867 14.6389 17.7987 14.5885 17.7383C14.54 17.68 14.5329 17.6309 14.5329 17.6084H16.5329C16.5329 16.836 15.9789 15.8867 14.9315 15.8867V17.8867Z" fill="#EC89AC" mask="url(#path-8-inside-2_777_55)"/>
<mask id="path-10-inside-3_777_55" fill="white">
<ellipse cx="16.6156" cy="17.6084" rx="0.601415" ry="0.721698"/>
</mask>
<ellipse cx="16.6156" cy="17.6084" rx="0.601415" ry="0.721698" fill="#D9D9D9"/>
<path d="M16.217 17.6084C16.217 17.586 16.2241 17.5368 16.2726 17.4786C16.3229 17.4182 16.4399 17.3301 16.6156 17.3301V19.3301C17.663 19.3301 18.217 18.3808 18.217 17.6084H16.217ZM16.6156 17.3301C16.7913 17.3301 16.9082 17.4182 16.9585 17.4786C17.0071 17.5368 17.0142 17.586 17.0142 17.6084H15.0142C15.0142 18.3808 15.5682 19.3301 16.6156 19.3301V17.3301ZM17.0142 17.6084C17.0142 17.6309 17.0071 17.68 16.9585 17.7383C16.9082 17.7987 16.7913 17.8867 16.6156 17.8867V15.8867C15.5682 15.8867 15.0142 16.836 15.0142 17.6084H17.0142ZM16.6156 17.8867C16.4399 17.8867 16.3229 17.7987 16.2726 17.7383C16.2241 17.68 16.217 17.6309 16.217 17.6084H18.217C18.217 16.836 17.663 15.8867 16.6156 15.8867V17.8867Z" fill="#EC89AC" mask="url(#path-10-inside-3_777_55)"/>
<rect x="22.9907" y="20.2544" width="24.7783" height="3.36792" fill="#7AC3D3"/>
<rect x="29.4858" y="25.3066" width="13.4717" height="7.93868" fill="#7AC3D3"/>
<rect x="19.6226" y="33.4858" width="32.2359" height="0.721698" fill="#7AC3D3"/>
<rect x="19.6226" y="34.6885" width="32.2359" height="0.962264" fill="#7AC3D3"/>
<rect x="19.6226" y="36.1318" width="32.2359" height="0.721698" fill="#7AC3D3"/>
<rect x="19.6226" y="37.335" width="32.2359" height="0.962264" fill="#7AC3D3"/>
<rect x="19.6226" y="38.7783" width="32.2359" height="0.721698" fill="#7AC3D3"/>
<rect x="19.6226" y="39.9814" width="32.2359" height="0.962264" fill="#7AC3D3"/>
<mask id="path-20-inside-4_777_55" fill="white">
<path d="M39.7136 19.2925H56.8971V38.8105H39.7136V19.2925Z"/>
</mask>
<path d="M39.7136 19.2925H56.8971V38.8105H39.7136V19.2925Z" fill="#D9D9D9"/>
<path d="M56.8971 38.8105V39.8105H57.8971V38.8105H56.8971ZM39.7136 38.8105H38.7136V39.8105H39.7136V38.8105ZM55.8971 19.2925V38.8105H57.8971V19.2925H55.8971ZM56.8971 37.8105H39.7136V39.8105H56.8971V37.8105ZM40.7136 38.8105V19.2925H38.7136V38.8105H40.7136Z" fill="black" mask="url(#path-20-inside-4_777_55)"/>
<rect x="41.9111" y="22.6245" width="12.9875" height="0.793417" fill="#CF93CC"/>
<rect x="41.9111" y="21.0381" width="5.39482" height="0.793417" fill="#CF93CC"/>
<rect x="41.9111" y="24.0527" width="12.9875" height="0.793417" fill="#CF93CC"/>
<rect x="41.9111" y="25.3223" width="12.9875" height="0.9521" fill="#CF93CC"/>
<rect x="41.9111" y="26.7505" width="12.9875" height="0.9521" fill="#CF93CC"/>
<rect x="41.9111" y="28.1787" width="12.9875" height="0.9521" fill="#CF93CC"/>
<rect x="41.9111" y="29.6064" width="12.9875" height="0.793417" fill="#CF93CC"/>
<rect x="41.9111" y="31.0352" width="12.9875" height="0.793417" fill="#CF93CC"/>
</svg>
