<svg width="107" height="107" viewBox="0 0 107 107" fill="none" xmlns="http://www.w3.org/2000/svg">
<rect width="107" height="107" rx="12" fill="#C1F8B0"/>
<path d="M57.9123 44.8021C57.9123 44.2525 58.1413 43.7255 58.549 43.3369C58.9567 42.9483 59.5097 42.73 60.0863 42.73H81.826C82.4026 42.73 82.9556 42.9483 83.3633 43.3369C83.771 43.7255 84 44.2525 84 44.8021C84 45.3516 83.771 45.8786 83.3633 46.2672C82.9556 46.6558 82.4026 46.8741 81.826 46.8741H60.0863C59.5097 46.8741 58.9567 46.6558 58.549 46.2672C58.1413 45.8786 57.9123 45.3516 57.9123 44.8021ZM81.826 51.0181H60.0863C59.5097 51.0181 58.9567 51.2364 58.549 51.625C58.1413 52.0136 57.9123 52.5406 57.9123 53.0902C57.9123 53.6397 58.1413 54.1667 58.549 54.5553C58.9567 54.9439 59.5097 55.1622 60.0863 55.1622H81.826C82.4026 55.1622 82.9556 54.9439 83.3633 54.5553C83.771 54.1667 84 53.6397 84 53.0902C84 52.5406 83.771 52.0136 83.3633 51.625C82.9556 51.2364 82.4026 51.0181 81.826 51.0181ZM81.826 59.3062H60.0863C59.5097 59.3062 58.9567 59.5245 58.549 59.9131C58.1413 60.3017 57.9123 60.8287 57.9123 61.3782C57.9123 61.9278 58.1413 62.4548 58.549 62.8434C58.9567 63.232 59.5097 63.4503 60.0863 63.4503H81.826C82.4026 63.4503 82.9556 63.232 83.3633 62.8434C83.771 62.4548 84 61.9278 84 61.3782C84 60.8287 83.771 60.3017 83.3633 59.9131C82.9556 59.5245 82.4026 59.3062 81.826 59.3062ZM81.826 67.5943H36.1725C35.5959 67.5943 35.043 67.8126 34.6353 68.2012C34.2276 68.5898 33.9985 69.1168 33.9985 69.6663C33.9985 70.2159 34.2276 70.7429 34.6353 71.1315C35.043 71.5201 35.5959 71.7384 36.1725 71.7384H81.826C82.4026 71.7384 82.9556 71.5201 83.3633 71.1315C83.771 70.7429 84 70.2159 84 69.6663C84 69.1168 83.771 68.5898 83.3633 68.2012C82.9556 67.8126 82.4026 67.5943 81.826 67.5943ZM38.3193 63.4503C35.6961 63.4556 33.1161 62.8135 30.8306 61.5863C28.5451 60.3592 26.632 58.5888 25.2776 56.4477C23.9231 54.3065 23.1735 51.8676 23.1017 49.3683C23.0299 46.8691 23.6383 44.3947 24.8678 42.1861C23.6326 41.2483 22.7342 39.9673 22.2972 38.5209C21.8601 37.0745 21.9061 35.5343 22.4287 34.114C22.9514 32.6936 23.9248 31.4634 25.2139 30.594C26.5031 29.7246 28.0442 29.259 29.6234 29.2619C30.0276 29.2568 30.4244 29.3649 30.7647 29.5727L47.5587 39.5702C48.3547 39.4304 49.0677 39.0134 49.559 38.4004C50.0504 37.7874 50.285 37.0221 50.2172 36.2534C50.1494 35.4847 49.7841 34.7674 49.1923 34.2411C48.6005 33.7149 47.8245 33.4172 47.0152 33.4059C46.4386 33.4059 45.8857 33.1876 45.478 32.7991C45.0703 32.4105 44.8412 31.8834 44.8412 31.3339C44.8412 30.7844 45.0703 30.2574 45.478 29.8688C45.8857 29.4802 46.4386 29.2619 47.0152 29.2619C49.0332 29.2619 50.9686 30.0259 52.3955 31.386C53.8225 32.746 54.6241 34.5906 54.6241 36.514C54.6241 38.4373 53.8225 40.2819 52.3955 41.642C50.9686 43.002 49.0332 43.766 47.0152 43.766C46.6111 43.7711 46.2142 43.6631 45.8739 43.4552L37.7215 38.6119C35.0894 38.7576 32.6025 39.8101 30.7241 41.5735C28.8457 43.3368 27.7038 45.6908 27.5109 48.197C27.3181 50.7031 28.0876 53.1907 29.6761 55.1963C31.2645 57.2019 33.5637 58.5889 36.1453 59.099V47.5216C36.1453 46.9721 36.3744 46.445 36.7821 46.0564C37.1898 45.6679 37.7427 45.4496 38.3193 45.4496C38.8959 45.4496 39.4488 45.6679 39.8565 46.0564C40.2642 46.445 40.4933 46.9721 40.4933 47.5216V59.099C42.5039 58.7106 44.3576 57.7865 45.8391 56.434C47.3207 55.0815 48.3693 53.3562 48.8631 51.4584C49.0042 50.9264 49.361 50.4694 49.8551 50.1878C50.3493 49.9062 50.9405 49.8229 51.499 49.9562C51.7744 50.0199 52.0338 50.1349 52.2623 50.2945C52.4908 50.4542 52.6839 50.6554 52.8304 50.8866C52.9769 51.1177 53.074 51.3742 53.116 51.6413C53.158 51.9084 53.1441 52.1807 53.0752 52.4426C52.2653 55.5879 50.3705 58.3827 47.6947 60.3788C45.0189 62.3749 41.7172 63.4565 38.3193 63.4503ZM27.4494 38.8191C28.9005 37.4036 30.6388 36.2844 32.5583 35.5298L29.0799 33.4577C28.3192 33.575 27.6274 33.9473 27.1291 34.5077C26.6309 35.068 26.359 35.7795 26.3624 36.514C26.3607 36.9499 26.4568 37.3811 26.6442 37.7786C26.8317 38.1762 27.1062 38.531 27.4494 38.8191Z" fill="black"/>
</svg>
