<svg width="106" height="107" viewBox="0 0 106 107" fill="none" xmlns="http://www.w3.org/2000/svg">
<rect width="106" height="107" rx="12" fill="#C1F8B0"/>
<path d="M73.5385 68.3984H35.4615V31.6579H58.3423L61.8038 28.3179H35.4615C34.5435 28.3179 33.663 28.6698 33.0139 29.2961C32.3647 29.9225 32 30.7721 32 31.6579V68.3984C32 69.2842 32.3647 70.1338 33.0139 70.7602C33.663 71.3865 34.5435 71.7384 35.4615 71.7384H73.5385C74.4565 71.7384 75.337 71.3865 75.9861 70.7602C76.6353 70.1338 77 69.2842 77 68.3984V43.3481L73.5385 46.6881V68.3984Z" fill="black"/>
<path d="M84.188 26.0371L78.404 20.5874C78.1473 20.3448 77.8424 20.1524 77.5066 20.0211C77.1709 19.8898 76.8109 19.8223 76.4474 19.8223C76.0839 19.8223 75.724 19.8898 75.3882 20.0211C75.0525 20.1524 74.7475 20.3448 74.4908 20.5874L50.9602 42.8877L49.0551 50.6661C48.974 51.0431 48.9825 51.4324 49.0801 51.806C49.1777 52.1796 49.362 52.5281 49.6197 52.8266C49.8773 53.125 50.202 53.366 50.5703 53.5321C50.9386 53.6982 51.3414 53.7853 51.7497 53.7872C51.9608 53.809 52.1737 53.809 52.3848 53.7872L60.7089 52.0568L84.188 29.7242C84.4454 29.4823 84.6496 29.195 84.7889 28.8786C84.9283 28.5623 85 28.2231 85 27.8806C85 27.5381 84.9283 27.199 84.7889 26.8826C84.6496 26.5663 84.4454 26.279 84.188 26.0371ZM58.9239 49.0651L52.6422 50.375L54.1011 44.5048L71.8134 27.7028L76.6534 32.2631L58.9239 49.0651ZM78.5928 30.4357L73.7528 25.8754L76.4131 23.3203L81.2874 27.913L78.5928 30.4357Z" fill="black"/>
</svg>
