<svg width="46" height="46" viewBox="0 0 46 46" fill="none" xmlns="http://www.w3.org/2000/svg">
<rect y="1" width="45" height="45" rx="6" fill="black"/>
<rect x="0.5" y="1.5" width="44" height="44" rx="5.5" stroke="white" stroke-opacity="0.4"/>
<path d="M10.3533 35.6702C9.83311 35.4847 9.26102 35.756 9.07551 36.2762C8.89 36.7964 9.16132 37.3685 9.68152 37.554L10.3533 35.6702ZM23.7197 21.8038L24.2401 20.9498L23.7197 21.8038ZM37.0926 10.1626C37.5597 10.4573 38.1773 10.3175 38.4719 9.85032C38.7665 9.3832 38.6267 8.76566 38.1596 8.47103L37.0926 10.1626ZM38.1596 8.47103C38.0111 8.37741 37.8624 8.28604 37.7135 8.19688L36.6864 9.91303C36.822 9.99416 36.9574 10.0774 37.0926 10.1626L38.1596 8.47103ZM36.8168 7.68839C36.5073 7.52237 36.197 7.36562 35.8864 7.21794L35.0277 9.02424C35.3091 9.15801 35.5905 9.30014 35.8715 9.45087L36.8168 7.68839ZM34.9375 6.79524C34.6153 6.66117 34.2931 6.53662 33.9712 6.42133L33.2968 8.30421C33.5871 8.40817 33.878 8.52062 34.1692 8.64178L34.9375 6.79524ZM32.9812 6.09528C32.6446 5.99399 32.3087 5.90265 31.9742 5.82098L31.4999 7.76394C31.8002 7.83725 32.1021 7.91934 32.405 8.01048L32.9812 6.09528ZM30.9553 5.60106C30.6103 5.53631 30.2672 5.48173 29.9265 5.43703L29.6663 7.42002C29.9705 7.45995 30.2774 7.50875 30.5863 7.56673L30.9553 5.60106ZM28.8859 5.33024C28.533 5.30415 28.1833 5.28864 27.8373 5.28335L27.8067 7.28312C28.1136 7.28781 28.4243 7.30158 28.7385 7.3248L28.8859 5.33024ZM26.787 5.29888C26.4324 5.31492 26.0826 5.34184 25.7381 5.37925L25.954 7.36756C26.2564 7.33472 26.5644 7.31099 26.8774 7.29683L26.787 5.29888ZM24.694 5.52737C24.3419 5.58934 23.9966 5.66262 23.6588 5.74679L24.1423 7.68746C24.4341 7.61475 24.7338 7.5511 25.0407 7.49709L24.694 5.52737ZM22.6373 6.04189C22.2937 6.15542 21.9594 6.28097 21.6356 6.41804L22.4153 8.25982C22.6879 8.14443 22.9713 8.03788 23.2648 7.9409L22.6373 6.04189ZM20.6618 6.88184C20.3365 7.05533 20.0243 7.24192 19.7268 7.44106L20.8393 9.10311C21.0793 8.94244 21.3341 8.78993 21.603 8.64658L20.6618 6.88184ZM18.8458 8.10431C18.5575 8.34851 18.2881 8.60724 18.0399 8.87982L19.5186 10.2265C19.7061 10.0206 19.913 9.82145 20.1387 9.63022L18.8458 8.10431ZM17.3379 9.77273C17.1223 10.0941 16.9338 10.4303 16.7757 10.7802L18.5983 11.6036C18.7087 11.3594 18.8423 11.1201 18.9987 10.8871L17.3379 9.77273ZM16.3922 11.8847C16.2988 12.2623 16.2401 12.65 16.2184 13.0456L18.2154 13.1553C18.2302 12.8856 18.2701 12.622 18.3337 12.3648L16.3922 11.8847ZM16.2608 14.2112C16.308 14.5842 16.3875 14.9597 16.4997 15.3363L18.4164 14.7651C18.3344 14.4898 18.2781 14.2213 18.245 13.9601L16.2608 14.2112ZM16.8997 16.3919C17.0496 16.7177 17.2241 17.043 17.4233 17.367L19.1272 16.3199C18.9678 16.0604 18.8314 15.8055 18.7165 15.5557L16.8997 16.3919ZM18.0397 18.2633C18.2504 18.5397 18.4795 18.815 18.7274 19.089L20.2104 17.7471C19.9984 17.5127 19.8053 17.2805 19.6304 17.051L18.0397 18.2633ZM19.4731 19.8546C19.7168 20.0881 19.9749 20.3205 20.2474 20.5517L21.5413 19.0267C21.2981 18.8202 21.0699 18.6146 20.8563 18.4101L19.4731 19.8546ZM21.0542 21.2002C21.3241 21.4061 21.606 21.611 21.9002 21.8147L23.0388 20.1704C22.7689 19.9835 22.5118 19.7966 22.2672 19.6101L21.0542 21.2002ZM22.7502 22.3783C22.8972 22.4717 23.0469 22.5648 23.1994 22.6577L24.2401 20.9498C24.0982 20.8633 23.9591 20.7768 23.8229 20.6902L22.7502 22.3783ZM23.1994 22.6577C23.3382 22.7423 23.4753 22.8273 23.6107 22.9125L24.6762 21.2199C24.5325 21.1295 24.3872 21.0394 24.2401 20.9498L23.1994 22.6577ZM24.4016 23.4268C24.6697 23.607 24.9301 23.7882 25.1829 23.9702L26.3515 22.3471C26.081 22.1523 25.8028 21.9588 25.5172 21.7668L24.4016 23.4268ZM25.9333 24.5301C26.1874 24.7266 26.4327 24.9239 26.6693 25.1215L27.9517 23.5868C27.6954 23.3727 27.4306 23.1597 27.1571 22.9482L25.9333 24.5301ZM27.3777 25.7382C27.6121 25.9509 27.8364 26.1638 28.0507 26.3765L29.4596 24.957C29.2236 24.7228 28.9777 24.4894 28.7219 24.2573L27.3777 25.7382ZM28.6933 27.0462C28.9073 27.2807 29.1091 27.5146 29.2988 27.7474L30.8491 26.484C30.6352 26.2214 30.4091 25.9594 30.1709 25.6983L28.6933 27.0462ZM29.8551 28.4745C30.0365 28.7279 30.2032 28.9793 30.3556 29.228L32.061 28.1832C31.8827 27.8922 31.6895 27.6011 31.4816 27.3106L29.8551 28.4745ZM30.7914 30.0078C30.9289 30.2803 31.0484 30.5484 31.1506 30.8113L33.0147 30.0865C32.888 29.7607 32.742 29.434 32.577 29.107L30.7914 30.0078ZM31.4188 31.6323C31.4934 31.9165 31.5466 32.1926 31.5794 32.4601L33.5645 32.2164C33.5202 31.855 33.4494 31.4905 33.3531 31.1241L31.4188 31.6323ZM31.6168 33.2785C31.607 33.5526 31.5739 33.8162 31.5188 34.0689L33.4727 34.4955C33.5543 34.1218 33.6016 33.7391 33.6155 33.3498L31.6168 33.2785ZM31.2795 34.8138C31.177 35.0509 31.0507 35.2794 30.9003 35.4984L32.5487 36.631C32.7717 36.3064 32.9608 35.9646 33.1152 35.6077L31.2795 34.8138ZM30.3921 36.1094C30.2082 36.2946 30.0016 36.4722 29.771 36.6407L30.9512 38.2554C31.2629 38.0276 31.55 37.7818 31.8114 37.5185L30.3921 36.1094ZM29.0585 37.0893C28.8169 37.2204 28.5563 37.3433 28.2762 37.4567L29.027 39.3105C29.3727 39.1704 29.7014 39.0159 30.0123 38.8472L29.0585 37.0893ZM27.4422 37.7482C27.1661 37.8308 26.8753 37.9052 26.5695 37.9707L26.9883 39.9263C27.3434 39.8503 27.6859 39.7629 28.0153 39.6643L27.4422 37.7482ZM25.6669 38.1311C25.3766 38.1728 25.0751 38.2072 24.7625 38.2337L24.9319 40.2265C25.2814 40.1968 25.6212 40.1582 25.9513 40.1108L25.6669 38.1311ZM23.8407 38.288C23.5366 38.2983 23.2234 38.3017 22.9011 38.2981L22.8782 40.2979C23.2297 40.3019 23.5732 40.2982 23.9085 40.2868L23.8407 38.288ZM21.9678 38.2684C21.663 38.2527 21.351 38.231 21.0317 38.2031L20.8575 40.1955C21.1999 40.2255 21.5358 40.2488 21.8651 40.2657L21.9678 38.2684ZM20.0799 38.1039C19.777 38.0673 19.4682 38.0255 19.1534 37.9781L18.856 39.9559C19.1895 40.006 19.5176 40.0505 19.8403 40.0895L20.0799 38.1039ZM18.204 37.8218C17.901 37.7677 17.5929 37.7087 17.2798 37.6448L16.8797 39.6044C17.2086 39.6715 17.5329 39.7336 17.8524 39.7906L18.204 37.8218ZM16.3365 37.4406C16.0345 37.3715 15.7281 37.298 15.4174 37.22L14.9304 39.1598C15.2546 39.2412 15.5747 39.318 15.8907 39.3903L16.3365 37.4406ZM14.4778 36.9738C14.1786 36.8922 13.8756 36.8066 13.5688 36.7167L13.0069 38.6362C13.3254 38.7294 13.6402 38.8184 13.9515 38.9033L14.4778 36.9738ZM12.637 36.4348C12.3394 36.3419 12.0384 36.2452 11.734 36.1446L11.1067 38.0437C11.4213 38.1476 11.7327 38.2477 12.0409 38.3439L12.637 36.4348ZM10.8185 35.8341C10.6643 35.7804 10.5092 35.7258 10.3533 35.6702L9.68152 37.554C9.84223 37.6113 10.0022 37.6676 10.1613 37.723L10.8185 35.8341ZM10.6892 34.7283C9.64881 34.3573 8.50464 34.8999 8.13361 35.9403C7.76259 36.9807 8.30522 38.1248 9.34562 38.4959L10.6892 34.7283ZM23.7197 21.8038L24.7604 20.0959L23.7197 21.8038ZM36.5591 11.0085C37.4934 11.5977 38.7284 11.3181 39.3177 10.3838C39.907 9.44956 39.6273 8.21449 38.6931 7.62522L36.5591 11.0085ZM38.6931 7.62522C38.538 7.52744 38.3827 7.43198 38.227 7.33881L36.1729 10.7711C36.3017 10.8482 36.4305 10.9273 36.5591 11.0085L38.6931 7.62522ZM37.2895 6.80716C36.9657 6.63348 36.641 6.46942 36.3157 6.31479L34.5984 9.92739C34.8652 10.0542 35.1321 10.189 35.3988 10.3321L37.2895 6.80716ZM35.3217 5.87196C34.984 5.73145 34.6461 5.60084 34.3084 5.4799L32.9596 9.24565C33.2341 9.34395 33.5094 9.45034 33.7851 9.56505L35.3217 5.87196ZM33.2693 5.13768C32.9158 5.03131 32.563 4.93535 32.2113 4.84951L31.2628 8.73541C31.546 8.80455 31.8309 8.88201 32.1169 8.96808L33.2693 5.13768ZM31.1397 4.61823C30.7767 4.55009 30.4155 4.49262 30.0566 4.44552L29.5362 8.41152C29.8222 8.44906 30.1109 8.49497 30.4018 8.54957L31.1397 4.61823ZM28.9596 4.33297C28.5874 4.30544 28.2181 4.28906 27.8526 4.28347L27.7914 8.283C28.0787 8.28739 28.3699 8.30029 28.6647 8.32208L28.9596 4.33297ZM26.7418 4.2999C26.3664 4.31688 25.9956 4.3454 25.6301 4.38509L26.062 8.36171C26.3433 8.33116 26.6304 8.30903 26.9226 8.29581L26.7418 4.2999ZM24.5206 4.54251C24.146 4.60845 23.7778 4.68656 23.417 4.77646L24.3841 8.65779C24.6529 8.59081 24.9298 8.53199 25.214 8.48195L24.5206 4.54251ZM22.3235 5.09238C21.9549 5.21419 21.5952 5.34924 21.2458 5.49716L22.8051 9.1807C23.0521 9.07616 23.3101 8.9791 23.5785 8.89041L22.3235 5.09238ZM20.1913 5.99948C19.8377 6.18803 19.4968 6.39166 19.1706 6.61003L21.3955 9.93414C21.6068 9.7927 21.833 9.65723 22.0735 9.52894L20.1913 5.99948ZM18.1993 7.34135C17.8798 7.61204 17.5792 7.90056 17.3006 8.20649L20.2579 10.8998C20.415 10.7273 20.5907 10.5579 20.7851 10.3932L18.1993 7.34135ZM16.5075 9.21553C16.2623 9.58105 16.0464 9.96579 15.8644 10.3684L19.5096 12.0154C19.5962 11.8239 19.7023 11.6332 19.829 11.4443L16.5075 9.21553ZM15.4215 11.6446C15.3132 12.0825 15.2451 12.5321 15.2199 12.9908L19.2139 13.2101C19.2252 13.0035 19.2558 12.8018 19.3045 12.6049L15.4215 11.6446ZM15.2688 14.3368C15.323 14.7656 15.4141 15.1946 15.5414 15.6219L19.3748 14.4795C19.3078 14.2549 19.2631 14.0399 19.2371 13.8346L15.2688 14.3368ZM15.9913 16.81C16.1587 17.1738 16.3523 17.5342 16.5713 17.8906L19.9792 15.7963C19.8396 15.5692 19.7223 15.3493 19.6249 15.1375L15.9913 16.81ZM17.2444 18.8695C17.4729 19.1693 17.7201 19.4662 17.9859 19.7599L20.952 17.0762C20.7578 16.8616 20.5828 16.6509 20.4257 16.4448L17.2444 18.8695ZM18.7814 20.5769C19.0403 20.8248 19.3133 21.0706 19.6004 21.3142L22.1883 18.2641C21.9596 18.0701 21.7464 17.8779 21.5479 17.6878L18.7814 20.5769ZM20.4477 21.9953C20.7303 22.2108 21.0246 22.4247 21.3309 22.6368L23.6082 19.3483C23.3504 19.1698 23.1057 18.9919 22.8737 18.815L20.4477 21.9953ZM22.2139 23.2223C22.3663 23.3191 22.5213 23.4156 22.679 23.5117L24.7604 20.0959C24.6238 20.0126 24.49 19.9294 24.3592 19.8462L22.2139 23.2223ZM22.679 23.5117C22.8138 23.5938 22.9468 23.6762 23.078 23.7587L25.2089 20.3736C25.0611 20.2806 24.9116 20.188 24.7604 20.0959L22.679 23.5117ZM23.8439 24.2568C24.1032 24.4311 24.3547 24.6061 24.5985 24.7817L26.9359 21.5356C26.6564 21.3344 26.3694 21.1347 26.075 20.9368L23.8439 24.2568ZM25.3215 25.3211C25.5658 25.5101 25.8013 25.6995 26.028 25.8889L28.5929 22.8194C28.3268 22.5971 28.0521 22.3763 27.769 22.1572L25.3215 25.3211ZM26.7056 26.4787C26.9293 26.6817 27.1428 26.8843 27.3462 27.0863L30.164 24.2472C29.9172 24.0023 29.6605 23.7587 29.394 23.5168L26.7056 26.4787ZM27.9545 27.7201C28.1564 27.9414 28.346 28.1612 28.5236 28.3792L31.6243 25.8522C31.3982 25.5748 31.16 25.2987 30.9097 25.0244L27.9545 27.7201ZM29.0418 29.0564C29.2099 29.2913 29.3635 29.5229 29.5029 29.7505L32.9137 27.6607C32.7224 27.3486 32.516 27.0377 32.2948 26.7287L29.0418 29.0564ZM29.8986 30.4583C30.0223 30.7035 30.1286 30.9422 30.2186 31.1736L33.9467 29.7242C33.8078 29.3669 33.6485 29.0108 33.4698 28.6565L29.8986 30.4583ZM30.4516 31.8864C30.5154 32.1295 30.5598 32.3614 30.5869 32.5819L34.5571 32.0945C34.5069 31.6862 34.4274 31.2775 34.3203 30.87L30.4516 31.8864ZM30.6174 33.2429C30.6097 33.4594 30.5837 33.6634 30.5418 33.8556L34.4497 34.7088C34.5445 34.2746 34.5989 33.8324 34.6149 33.3855L30.6174 33.2429ZM30.3617 34.4168C30.285 34.5941 30.1903 34.7659 30.0761 34.9322L33.3729 37.1973C33.6322 36.8199 33.8528 36.4215 34.033 36.0047L30.3617 34.4168ZM29.6824 35.4049C29.5373 35.551 29.371 35.6945 29.181 35.8334L31.5413 39.0628C31.8935 38.8053 32.2209 38.5253 32.521 38.2231L29.6824 35.4049ZM28.5816 36.2104C28.3747 36.3226 28.1481 36.4297 27.9008 36.5299L29.4023 40.2373C29.7809 40.084 30.1436 39.9137 30.4892 39.7262L28.5816 36.2104ZM27.1556 36.7902C26.9062 36.8647 26.6412 36.9327 26.3601 36.9928L27.1977 40.9042C27.5775 40.8228 27.9457 40.7289 28.3018 40.6224L27.1556 36.7902ZM25.5247 37.1412C25.2542 37.1801 24.972 37.2123 24.6778 37.2373L25.0166 41.223C25.3845 41.1917 25.7436 41.1509 26.0935 41.1006L25.5247 37.1412ZM23.8068 37.2885C23.5184 37.2983 23.2203 37.3016 22.9125 37.2981L22.8667 41.2979C23.2328 41.302 23.5914 41.2981 23.9424 41.2862L23.8068 37.2885ZM22.0191 37.2697C21.7266 37.2547 21.4265 37.2338 21.1187 37.2069L20.7705 41.1917C21.1244 41.2227 21.4722 41.2469 21.8138 41.2644L22.0191 37.2697ZM20.1997 37.1111C19.9067 37.0757 19.6075 37.0352 19.3022 36.9893L18.7073 40.9448C19.0502 40.9963 19.3879 41.0421 19.7205 41.0823L20.1997 37.1111ZM18.3798 36.8374C18.0851 36.7847 17.7851 36.7273 17.4798 36.665L16.6797 40.5842C17.0165 40.6529 17.3488 40.7165 17.6766 40.7751L18.3798 36.8374ZM16.5593 36.4657C16.2644 36.3983 15.9649 36.3265 15.6609 36.2501L14.6869 40.1297C15.0178 40.2128 15.3448 40.2912 15.6679 40.3651L16.5593 36.4657ZM14.741 36.0091C14.4478 35.9291 14.1508 35.8451 13.8498 35.757L12.726 39.5959C13.0502 39.6908 13.371 39.7815 13.6883 39.8681L14.741 36.0091ZM12.9351 35.4803C12.6428 35.389 12.347 35.2939 12.0477 35.1951L10.793 38.9932C11.1127 39.0988 11.4293 39.2005 11.7428 39.2984L12.9351 35.4803ZM11.1472 34.8896C10.9954 34.8368 10.8427 34.783 10.6892 34.7283L9.34562 38.4959C9.50874 38.554 9.6711 38.6112 9.83268 38.6675L11.1472 34.8896Z" fill="#F900FE"/>
</svg>
