<svg width="63" height="63" viewBox="0 0 63 63" fill="none" xmlns="http://www.w3.org/2000/svg">
<rect x="1.5" y="3.5" width="59" height="59" rx="5.5" fill="black" stroke="black"/>
<path d="M18.3176 44.5469C17.0171 44.0831 15.5869 44.7614 15.1231 46.0619C14.6594 47.3624 15.3377 48.7926 16.6382 49.2564L18.3176 44.5469ZM30.9137 32.3814L32.2145 30.2465L32.2145 30.2465L30.9137 32.3814ZM43.2158 22.2519C44.3836 22.9884 45.9275 22.6389 46.664 21.471C47.4006 20.3032 47.0511 18.7594 45.8832 18.0228L43.2158 22.2519ZM45.8832 18.0228C45.7185 17.9189 45.5534 17.8176 45.3879 17.7189L42.8262 22.0128C42.9562 22.0903 43.086 22.17 43.2158 22.2519L45.8832 18.0228ZM44.3883 17.1557C44.0438 16.9728 43.6981 16.8006 43.3517 16.639L41.2374 21.17C41.506 21.2953 41.7749 21.4292 42.0438 21.572L44.3883 17.1557ZM42.288 16.1762C41.9258 16.0299 41.5633 15.8948 41.2012 15.7706L39.5798 20.5005C39.8573 20.5956 40.1359 20.6994 40.4151 20.8122L42.288 16.1762ZM40.093 15.4243C39.7141 15.3172 39.336 15.2219 38.9593 15.138L37.8727 20.0185C38.1577 20.082 38.4447 20.1543 38.7333 20.2359L40.093 15.4243ZM37.8076 14.9161C37.4168 14.8525 37.0282 14.8011 36.6425 14.7616L36.1325 19.7355C36.42 19.765 36.7107 19.8034 37.0043 19.8512L37.8076 14.9161ZM35.4667 14.677C35.0683 14.6605 34.6736 14.6567 34.2833 14.6652L34.392 19.664C34.6767 19.6578 34.9664 19.6606 35.2605 19.6727L35.4667 14.677ZM33.0953 14.7298C32.6931 14.765 32.2964 14.8136 31.9062 14.875L32.684 19.8141C32.9595 19.7708 33.2422 19.7361 33.5314 19.7108L33.0953 14.7298ZM30.7197 15.1061C30.3182 15.1998 29.9246 15.3079 29.5402 15.43L31.0542 20.1953C31.3113 20.1136 31.5788 20.04 31.8557 19.9753L30.7197 15.1061ZM28.3756 15.8547C27.9825 16.0176 27.6007 16.1968 27.2321 16.3921L29.5725 20.8105C29.7976 20.6913 30.0368 20.5786 30.2897 20.4738L28.3756 15.8547ZM26.1227 17.0559C25.7527 17.3052 25.3994 17.5743 25.0662 17.8628L28.3394 21.6425C28.5134 21.4918 28.7059 21.3444 28.917 21.2022L26.1227 17.0559ZM24.0916 18.8307C23.7792 19.1882 23.494 19.5694 23.2417 19.9733L27.4825 22.622C27.5865 22.4555 27.7107 22.2878 27.8567 22.1207L24.0916 18.8307ZM22.5745 21.29C22.3895 21.7564 22.2483 22.2422 22.1559 22.7442L27.0734 23.6487C27.1053 23.4756 27.1547 23.3038 27.2224 23.1331L22.5745 21.29ZM22.0304 24.2569C22.0382 24.7495 22.0927 25.2445 22.1935 25.7387L27.0925 24.7388C27.0521 24.5408 27.0326 24.3541 27.0298 24.1782L22.0304 24.2569ZM22.5955 27.1144C22.7552 27.5334 22.9475 27.947 23.1708 28.3544L27.5552 25.9509C27.4363 25.734 27.3417 25.5279 27.2675 25.3333L22.5955 27.1144ZM23.8678 29.4662C24.1065 29.8036 24.3673 30.1365 24.6496 30.4645L28.4392 27.2028C28.2547 26.9884 28.0922 26.78 27.9497 26.5786L23.8678 29.4662ZM25.4802 31.3545C25.7539 31.6262 26.0435 31.8948 26.3488 32.1602L29.629 28.3866C29.4029 28.19 29.1944 27.9963 29.0025 27.8058L25.4802 31.3545ZM27.2521 32.9006C27.5515 33.1323 27.8639 33.3619 28.1894 33.589L31.0509 29.4888C30.7903 29.3069 30.5446 29.1262 30.3131 28.947L27.2521 32.9006ZM29.1213 34.2101C29.2822 34.3126 29.4461 34.4147 29.6128 34.5163L32.2145 30.2465C32.0757 30.1619 31.9401 30.0774 31.8076 29.993L29.1213 34.2101ZM29.6128 34.5163C29.7492 34.5994 29.8837 34.6827 30.0163 34.7663L32.683 30.5369C32.5287 30.4396 32.3725 30.3428 32.2145 30.2465L29.6128 34.5163ZM30.7884 35.2701C31.0505 35.4471 31.304 35.6247 31.549 35.8027L34.4876 31.7574C34.1955 31.5451 33.8952 31.3348 33.5868 31.1265L30.7884 35.2701ZM32.2768 36.3517C32.5197 36.5421 32.7529 36.7326 32.9767 36.9229L36.216 33.1142C35.9404 32.8798 35.6556 32.6473 35.3617 32.4168L32.2768 36.3517ZM33.6512 37.5223C33.8739 37.7293 34.085 37.9353 34.285 38.1402L37.8629 34.6475C37.6048 34.3831 37.3356 34.1206 37.0555 33.8602L33.6512 37.5223ZM34.8745 38.7768C35.0683 38.9981 35.2486 39.217 35.4158 39.4329L39.3699 36.3728C39.1385 36.0737 38.8935 35.7767 38.6354 35.482L34.8745 38.7768ZM35.9045 40.1108C36.0611 40.3455 36.2012 40.5749 36.3257 40.7984L40.6943 38.3663C40.5015 38.0199 40.2907 37.6758 40.0628 37.3344L35.9045 40.1108ZM36.6695 41.488C36.7733 41.7246 36.8579 41.9514 36.9252 42.1676L41.6992 40.6812C41.5735 40.2776 41.4225 39.8764 41.2479 39.4786L36.6695 41.488ZM37.0837 42.82C37.1208 43.0378 37.1385 43.2404 37.1405 43.428L42.1402 43.3756C42.1353 42.9103 42.0917 42.4442 42.0126 41.9801L37.0837 42.82ZM37.0979 43.9751C37.0678 44.1473 37.0224 44.3082 36.9631 44.4593L41.6176 46.2856C41.8019 45.816 41.9367 45.331 42.0233 44.8356L37.0979 43.9751ZM36.7358 44.8991C36.6459 45.0368 36.5369 45.1743 36.4055 45.3101L39.998 48.7877C40.344 48.4303 40.6534 48.0446 40.9226 47.6323L36.7358 44.8991ZM35.9625 45.6943C35.8018 45.8127 35.6183 45.9294 35.4097 46.0418L37.7807 50.4438C38.1845 50.2264 38.5676 49.9854 38.9276 49.7203L35.9625 45.6943ZM34.7623 46.3411C34.541 46.4288 34.3005 46.5109 34.0396 46.5859L35.4217 51.3911C35.8296 51.2738 36.224 51.1401 36.6038 50.9896L34.7623 46.3411ZM33.259 46.7752C32.9988 46.8276 32.7236 46.8731 32.4331 46.9108L33.0774 51.8692C33.4771 51.8172 33.8665 51.7532 34.2453 51.677L33.259 46.7752ZM31.5752 46.9957C31.2968 47.0151 31.0071 47.0279 30.7062 47.0335L30.7991 52.0327C31.1819 52.0256 31.5567 52.0092 31.9233 51.9836L31.5752 46.9957ZM29.8139 47.0294C29.5181 47.0215 29.213 47.0072 28.8986 46.9859L28.5619 51.9746C28.9417 52.0002 29.3145 52.0179 29.6803 52.0277L29.8139 47.0294ZM27.9959 46.9085C27.6966 46.8776 27.3898 46.8408 27.0756 46.7979L26.3994 51.752C26.766 51.802 27.1267 51.8453 27.4816 51.882L27.9959 46.9085ZM26.1506 46.6574C25.8507 46.6073 25.5447 46.552 25.2327 46.4913L24.2773 51.3991C24.6323 51.4683 24.9824 51.5316 25.3276 51.5892L26.1506 46.6574ZM24.2982 46.297C23.9988 46.2308 23.6943 46.1599 23.3847 46.084L22.1951 50.9405C22.5409 51.0252 22.8823 51.1047 23.2196 51.1792L24.2982 46.297ZM22.4501 45.8442C22.1512 45.7641 21.8478 45.6795 21.5401 45.5905L20.1506 50.3936C20.4893 50.4916 20.8243 50.5849 21.1556 50.6737L22.4501 45.8442ZM20.6117 45.3123C20.3125 45.2196 20.0094 45.1228 19.7025 45.0218L18.1398 49.7714C18.4739 49.8813 18.8045 49.9869 19.1319 50.0883L20.6117 45.3123ZM18.7849 44.7114C18.6301 44.6576 18.4743 44.6028 18.3176 44.5469L16.6382 49.2564C16.8075 49.3167 16.9759 49.3761 17.1436 49.4343L18.7849 44.7114ZM19.1574 42.1921C16.5564 41.2646 13.696 42.6212 12.7684 45.2221C11.8408 47.8231 13.1974 50.6836 15.7984 51.6111L19.1574 42.1921ZM30.9137 32.3814L33.5154 28.1116L30.9137 32.3814ZM41.8821 24.3664C44.2177 25.8396 47.3054 25.1404 48.7786 22.8048C50.2518 20.4691 49.5526 17.3815 47.217 15.9083L41.8821 24.3664ZM47.217 15.9083C47.0348 15.7934 46.852 15.6813 46.6687 15.5719L41.5453 24.1598C41.6575 24.2267 41.7698 24.2955 41.8821 24.3664L47.217 15.9083ZM45.5606 14.9476C45.1782 14.7446 44.7941 14.5533 44.4088 14.3735L40.1803 23.4355C40.41 23.5427 40.6405 23.6574 40.8715 23.7801L45.5606 14.9476ZM43.2245 13.8583C42.8207 13.6951 42.4164 13.5444 42.0119 13.4057L38.7691 22.8654C39.0043 22.946 39.2409 23.0341 39.4786 23.1302L43.2245 13.8583ZM40.7729 13.0185C40.3487 12.8986 39.9251 12.7918 39.5026 12.6978L37.3294 22.4588C37.5685 22.512 37.81 22.5729 38.0534 22.6416L40.7729 13.0185ZM38.2092 12.4486C37.7698 12.3771 37.3324 12.3192 36.8974 12.2746L35.8775 22.2225C36.1158 22.2469 36.3577 22.2789 36.6027 22.3187L38.2092 12.4486ZM35.5699 12.1791C35.1193 12.1605 34.672 12.1562 34.229 12.1658L34.4464 22.1634C34.6783 22.1584 34.9155 22.1606 35.1574 22.1706L35.5699 12.1791ZM32.8773 12.2393C32.4186 12.2795 31.9649 12.335 31.5174 12.4054L33.0729 22.2837C33.291 22.2494 33.5167 22.2216 33.7495 22.2012L32.8773 12.2393ZM30.1517 12.6715C29.6879 12.7797 29.2312 12.905 28.7833 13.0473L31.8111 22.5779C32.0047 22.5164 32.2091 22.4601 32.4238 22.41L30.1517 12.6715ZM27.4186 13.5451C26.9553 13.7371 26.5022 13.9496 26.0619 14.1829L30.7427 23.0197C30.896 22.9385 31.064 22.8591 31.2468 22.7834L27.4186 13.5451ZM24.7255 14.9827C24.2761 15.2856 23.8424 15.6155 23.4296 15.9729L29.976 23.5323C30.0704 23.4506 30.1825 23.3641 30.3141 23.2753L24.7255 14.9827ZM22.2091 17.1857C21.8134 17.6384 21.4477 18.1263 21.1213 18.6489L29.6029 23.9464C29.6327 23.8986 29.6764 23.8376 29.7393 23.7657L22.2091 17.1857ZM20.2505 20.3685C20.0069 20.9828 19.8198 21.6255 19.6972 22.2919L29.5322 24.1009C29.5338 24.0923 29.5373 24.0775 29.5463 24.0547L20.2505 20.3685ZM19.5307 24.2962C19.541 24.9472 19.6129 25.5963 19.744 26.2386L29.542 24.2389C29.5318 24.189 29.5298 24.1564 29.5295 24.1388L19.5307 24.2962ZM20.2595 28.005C20.462 28.5361 20.703 29.0536 20.9786 29.5562L29.7474 24.7491C29.6807 24.6275 29.6349 24.5252 29.6035 24.4428L20.2595 28.005ZM21.8269 30.91C22.1137 31.3154 22.4236 31.7105 22.7547 32.0953L30.3341 25.572C30.1984 25.4143 30.085 25.2683 29.9906 25.1348L21.8269 30.91ZM23.719 33.1289C24.0336 33.4412 24.3637 33.7472 24.7087 34.047L31.2691 26.4998C31.0826 26.3377 30.9146 26.1813 30.7636 26.0314L23.719 33.1289ZM25.7217 34.8773C26.055 35.1354 26.4007 35.3893 26.7586 35.6391L32.4817 27.4387C32.2535 27.2795 32.0411 27.1232 31.8436 26.9702L25.7217 34.8773ZM27.7781 36.3186C27.9533 36.4302 28.1313 36.5411 28.3119 36.6511L33.5154 28.1116C33.3905 28.0355 33.269 27.9598 33.1508 27.8845L27.7781 36.3186ZM28.3119 36.6511C28.4375 36.7277 28.5612 36.8043 28.6829 36.8811L34.0164 28.4221C33.8512 28.318 33.6842 28.2145 33.5154 28.1116L28.3119 36.6511ZM29.3893 37.3419C29.6281 37.5032 29.8582 37.6644 30.0797 37.8253L35.9569 29.7347C35.6412 29.5054 35.3175 29.2787 34.9859 29.0547L29.3893 37.3419ZM30.7343 38.3191C30.9517 38.4896 31.1592 38.6591 31.357 38.8273L37.8357 31.2098C37.5342 30.9533 37.2236 30.6998 36.9041 30.4493L30.7343 38.3191ZM31.9491 39.3534C32.143 39.5336 32.3252 39.7115 32.4961 39.8865L39.6518 32.9012C39.3646 32.607 39.0665 32.3163 38.7577 32.0292L31.9491 39.3534ZM32.994 40.4242C33.1557 40.6088 33.3037 40.7886 33.4387 40.963L41.347 34.8427C41.0834 34.5021 40.8062 34.166 40.5158 33.8346L32.994 40.4242ZM33.8253 41.499C33.9464 41.6803 34.0511 41.8524 34.1414 42.0145L42.8786 37.1503C42.6516 36.7424 42.4055 36.3409 42.142 35.9463L33.8253 41.499ZM34.3803 42.4928C34.4487 42.6488 34.5001 42.7883 34.5382 42.9108L44.0862 39.938C43.9313 39.4407 43.7471 38.9522 43.5372 38.4739L34.3803 42.4928ZM34.6192 43.2399C34.6353 43.3346 34.6401 43.4055 34.6406 43.4542L44.6401 43.3495C44.6337 42.7452 44.5771 42.1473 44.4771 41.5602L34.6192 43.2399ZM34.6352 43.5448C34.6341 43.5507 34.6334 43.5531 34.6336 43.5526C34.6337 43.552 34.6344 43.5497 34.6358 43.5462L43.9449 47.1987C44.1916 46.5698 44.3712 45.9229 44.486 45.2658L34.6352 43.5448ZM34.6423 43.5325C34.6421 43.5329 34.6334 43.5463 34.6092 43.5713L41.7943 50.5265C42.2475 50.0583 42.6572 49.5485 43.016 48.9989L34.6423 43.5325ZM34.48 43.6813C34.4188 43.7264 34.3353 43.7809 34.2241 43.8408L38.9663 52.6449C39.4675 52.3749 39.9506 52.0717 40.4101 51.7333L34.48 43.6813ZM33.8415 44.0168C33.6995 44.0731 33.5359 44.1295 33.3486 44.1833L36.1127 53.7937C36.5941 53.6553 37.0655 53.4958 37.5246 53.3139L33.8415 44.0168ZM32.7659 44.3243C32.5649 44.3648 32.3468 44.401 32.1109 44.4317L33.3996 54.3483C33.8539 54.2893 34.3004 54.216 34.7384 54.1279L32.7659 44.3243ZM31.4011 44.5018C31.1668 44.5181 30.9198 44.5291 30.6597 44.534L30.8456 54.5322C31.2693 54.5244 31.6867 54.5062 32.0973 54.4775L31.4011 44.5018ZM29.8806 44.5303C29.6198 44.5234 29.3487 44.5106 29.067 44.4916L28.3935 54.4689C28.806 54.4968 29.2128 54.5161 29.6136 54.5268L29.8806 44.5303ZM28.253 44.4218C27.9815 44.3937 27.7017 44.3602 27.4137 44.3209L26.0613 54.229C26.4541 54.2826 26.8418 54.3292 27.2245 54.3687L28.253 44.4218ZM26.5621 44.1915C26.2848 44.1452 26.0009 44.0939 25.7104 44.0373L23.7996 53.8531C24.1761 53.9264 24.5483 53.9937 24.9161 54.0551L26.5621 44.1915ZM24.8376 43.8558C24.5571 43.7939 24.2711 43.7272 23.9795 43.6558L21.6004 53.3687C21.9641 53.4578 22.3241 53.5417 22.6802 53.6203L24.8376 43.8558ZM23.0974 43.4294C22.8146 43.3536 22.527 43.2735 22.2348 43.189L19.4559 52.7951C19.8101 52.8976 20.1609 52.9954 20.5083 53.0885L23.0974 43.4294ZM21.3516 42.9243C21.0665 42.836 20.7772 42.7436 20.4838 42.6471L17.3585 52.1461C17.7061 52.2605 18.0506 52.3705 18.3919 52.4763L21.3516 42.9243ZM19.6055 42.3499C19.4571 42.2983 19.3077 42.2458 19.1574 42.1921L15.7984 51.6111C15.974 51.6737 16.1489 51.7353 16.323 51.7958L19.6055 42.3499Z" fill="#F900FE"/>
</svg>
