<svg width="45" height="46" viewBox="0 0 45 46" fill="none" xmlns="http://www.w3.org/2000/svg">
<rect y="1" width="45" height="45" rx="6" fill="white" fill-opacity="0.4"/>
<rect x="0.5" y="1.5" width="44" height="44" rx="5.5" stroke="white" stroke-opacity="0.4"/>
<path d="M10.3533 35.6704C9.83311 35.4849 9.26102 35.7562 9.07551 36.2764C8.89 36.7966 9.16132 37.3687 9.68152 37.5542L10.3533 35.6704ZM23.7197 21.804L24.2401 20.9501L23.7197 21.804ZM37.0926 10.1629C37.5597 10.4575 38.1773 10.3177 38.4719 9.85057C38.7665 9.38344 38.6267 8.76591 38.1596 8.47127L37.0926 10.1629ZM38.1596 8.47127C38.0111 8.37766 37.8624 8.28628 37.7135 8.19713L36.6864 9.91328C36.822 9.99441 36.9574 10.0776 37.0926 10.1629L38.1596 8.47127ZM36.8168 7.68864C36.5073 7.52261 36.197 7.36586 35.8864 7.21818L35.0277 9.02448C35.3091 9.15825 35.5905 9.30038 35.8715 9.45111L36.8168 7.68864ZM34.9375 6.79548C34.6153 6.66142 34.2931 6.53686 33.9712 6.42158L33.2968 8.30445C33.5871 8.40842 33.878 8.52086 34.1692 8.64202L34.9375 6.79548ZM32.9812 6.09552C32.6446 5.99423 32.3087 5.90289 31.9742 5.82123L31.4999 7.76418C31.8002 7.8375 32.1021 7.91958 32.405 8.01072L32.9812 6.09552ZM30.9553 5.60131C30.6103 5.53655 30.2672 5.48198 29.9265 5.43727L29.6663 7.42027C29.9705 7.4602 30.2774 7.50899 30.5863 7.56698L30.9553 5.60131ZM28.8859 5.33049C28.533 5.3044 28.1833 5.28889 27.8373 5.2836L27.8067 7.28336C28.1136 7.28805 28.4243 7.30182 28.7385 7.32504L28.8859 5.33049ZM26.787 5.29912C26.4324 5.31516 26.0826 5.34208 25.7381 5.37949L25.954 7.3678C26.2564 7.33497 26.5644 7.31124 26.8774 7.29708L26.787 5.29912ZM24.694 5.52761C24.3419 5.58958 23.9966 5.66287 23.6588 5.74704L24.1423 7.6877C24.4341 7.61499 24.7338 7.55135 25.0407 7.49734L24.694 5.52761ZM22.6373 6.04213C22.2937 6.15567 21.9594 6.28121 21.6356 6.41829L22.4153 8.26006C22.6879 8.14467 22.9713 8.03812 23.2648 7.94115L22.6373 6.04213ZM20.6618 6.88209C20.3365 7.05557 20.0243 7.24216 19.7268 7.44131L20.8393 9.10336C21.0793 8.94269 21.3341 8.79017 21.603 8.64682L20.6618 6.88209ZM18.8458 8.10455C18.5575 8.34875 18.2881 8.60749 18.0399 8.88006L19.5186 10.2267C19.7061 10.0209 19.913 9.82169 20.1387 9.63047L18.8458 8.10455ZM17.3379 9.77297C17.1223 10.0943 16.9338 10.4306 16.7757 10.7804L18.5983 11.6039C18.7087 11.3596 18.8423 11.1204 18.9987 10.8874L17.3379 9.77297ZM16.3922 11.8849C16.2988 12.2625 16.2401 12.6502 16.2184 13.0459L18.2154 13.1555C18.2302 12.8859 18.2701 12.6222 18.3337 12.365L16.3922 11.8849ZM16.2608 14.2115C16.308 14.5844 16.3875 14.9599 16.4997 15.3365L18.4164 14.7653C18.3344 14.49 18.2781 14.2215 18.245 13.9604L16.2608 14.2115ZM16.8997 16.3921C17.0496 16.718 17.2241 17.0432 17.4233 17.3673L19.1272 16.3201C18.9678 16.0607 18.8314 15.8057 18.7165 15.5559L16.8997 16.3921ZM18.0397 18.2635C18.2504 18.5399 18.4795 18.8153 18.7274 19.0892L20.2104 17.7474C19.9984 17.513 19.8053 17.2808 19.6304 17.0512L18.0397 18.2635ZM19.4731 19.8548C19.7168 20.0883 19.9749 20.3207 20.2474 20.5519L21.5413 19.0269C21.2981 18.8205 21.0699 18.6149 20.8563 18.4103L19.4731 19.8548ZM21.0542 21.2005C21.3241 21.4063 21.606 21.6112 21.9002 21.8149L23.0388 20.1707C22.7689 19.9838 22.5118 19.7969 22.2672 19.6103L21.0542 21.2005ZM22.7502 22.3785C22.8972 22.4719 23.0469 22.5651 23.1994 22.658L24.2401 20.9501C24.0982 20.8636 23.9591 20.7771 23.8229 20.6905L22.7502 22.3785ZM23.1994 22.658C23.3382 22.7426 23.4753 22.8275 23.6107 22.9127L24.6762 21.2201C24.5325 21.1297 24.3872 21.0397 24.2401 20.9501L23.1994 22.658ZM24.4016 23.4271C24.6697 23.6072 24.9301 23.7884 25.1829 23.9704L26.3515 22.3474C26.081 22.1525 25.8028 21.959 25.5172 21.7671L24.4016 23.4271ZM25.9333 24.5303C26.1874 24.7269 26.4327 24.9241 26.6693 25.1218L27.9517 23.587C27.6954 23.3729 27.4306 23.16 27.1571 22.9484L25.9333 24.5303ZM27.3777 25.7384C27.6121 25.9512 27.8364 26.164 28.0507 26.3768L29.4596 24.9572C29.2236 24.723 28.9777 24.4897 28.7219 24.2575L27.3777 25.7384ZM28.6933 27.0464C28.9073 27.281 29.1091 27.5149 29.2988 27.7477L30.8491 26.4842C30.6352 26.2217 30.4091 25.9596 30.1709 25.6986L28.6933 27.0464ZM29.8551 28.4747C30.0365 28.7282 30.2032 28.9795 30.3556 29.2283L32.061 28.1834C31.8827 27.8924 31.6895 27.6014 31.4816 27.3108L29.8551 28.4747ZM30.7914 30.0081C30.9289 30.2806 31.0484 30.5486 31.1506 30.8115L33.0147 30.0868C32.888 29.761 32.742 29.4342 32.577 29.1072L30.7914 30.0081ZM31.4188 31.6326C31.4934 31.9167 31.5466 32.1929 31.5794 32.4603L33.5645 32.2166C33.5202 31.8552 33.4494 31.4907 33.3531 31.1243L31.4188 31.6326ZM31.6168 33.2788C31.607 33.5529 31.5739 33.8165 31.5188 34.0691L33.4727 34.4957C33.5543 34.1221 33.6016 33.7394 33.6155 33.3501L31.6168 33.2788ZM31.2795 34.814C31.177 35.0512 31.0507 35.2797 30.9003 35.4987L32.5487 36.6312C32.7717 36.3067 32.9608 35.9649 33.1152 35.608L31.2795 34.814ZM30.3921 36.1097C30.2082 36.2948 30.0016 36.4724 29.771 36.641L30.9512 38.2557C31.2629 38.0279 31.55 37.782 31.8114 37.5188L30.3921 36.1097ZM29.0585 37.0896C28.8169 37.2206 28.5563 37.3435 28.2762 37.457L29.027 39.3107C29.3727 39.1707 29.7014 39.0162 30.0123 38.8475L29.0585 37.0896ZM27.4422 37.7485C27.1661 37.831 26.8753 37.9054 26.5695 37.9709L26.9883 39.9266C27.3434 39.8505 27.6859 39.7631 28.0153 39.6646L27.4422 37.7485ZM25.6669 38.1313C25.3766 38.173 25.0751 38.2074 24.7625 38.234L24.9319 40.2268C25.2814 40.1971 25.6212 40.1584 25.9513 40.111L25.6669 38.1313ZM23.8407 38.2882C23.5366 38.2985 23.2234 38.302 22.9011 38.2983L22.8782 40.2982C23.2297 40.3022 23.5732 40.2984 23.9085 40.2871L23.8407 38.2882ZM21.9678 38.2686C21.663 38.253 21.351 38.2313 21.0317 38.2034L20.8575 40.1958C21.1999 40.2257 21.5358 40.2491 21.8651 40.266L21.9678 38.2686ZM20.0799 38.1041C19.777 38.0676 19.4682 38.0257 19.1534 37.9784L18.856 39.9561C19.1895 40.0063 19.5176 40.0508 19.8403 40.0897L20.0799 38.1041ZM18.204 37.822C17.901 37.7679 17.5929 37.709 17.2798 37.645L16.8797 39.6046C17.2086 39.6718 17.5329 39.7338 17.8524 39.7909L18.204 37.822ZM16.3365 37.4408C16.0345 37.3718 15.7281 37.2983 15.4174 37.2203L14.9304 39.1601C15.2546 39.2415 15.5747 39.3183 15.8907 39.3905L16.3365 37.4408ZM14.4778 36.9741C14.1786 36.8925 13.8756 36.8068 13.5688 36.717L13.0069 38.6364C13.3254 38.7297 13.6402 38.8187 13.9515 38.9036L14.4778 36.9741ZM12.637 36.435C12.3394 36.3421 12.0384 36.2454 11.734 36.1448L11.1067 38.0439C11.4213 38.1478 11.7327 38.2479 12.0409 38.3441L12.637 36.435ZM10.8185 35.8343C10.6643 35.7806 10.5092 35.726 10.3533 35.6704L9.68152 37.5542C9.84223 37.6115 10.0022 37.6679 10.1613 37.7232L10.8185 35.8343ZM10.6892 34.7285C9.64881 34.3575 8.50464 34.9001 8.13361 35.9405C7.76259 36.9809 8.30522 38.1251 9.34562 38.4961L10.6892 34.7285ZM23.7197 21.804L24.7604 20.0961L23.7197 21.804ZM36.5591 11.0087C37.4934 11.598 38.7284 11.3183 39.3177 10.3841C39.907 9.4498 39.6273 8.21474 38.6931 7.62546L36.5591 11.0087ZM38.6931 7.62546C38.538 7.52768 38.3827 7.43222 38.227 7.33905L36.1729 10.7714C36.3017 10.8485 36.4305 10.9276 36.5591 11.0087L38.6931 7.62546ZM37.2895 6.8074C36.9657 6.63372 36.641 6.46966 36.3157 6.31503L34.5984 9.92764C34.8652 10.0544 35.1321 10.1893 35.3988 10.3323L37.2895 6.8074ZM35.3217 5.87221C34.984 5.73169 34.6461 5.60109 34.3084 5.48014L32.9596 9.24589C33.2341 9.3442 33.5094 9.45058 33.7851 9.5653L35.3217 5.87221ZM33.2693 5.13792C32.9158 5.03156 32.563 4.93559 32.2113 4.84975L31.2628 8.73566C31.546 8.8048 31.8309 8.88226 32.1169 8.96832L33.2693 5.13792ZM31.1397 4.61847C30.7767 4.55033 30.4155 4.49287 30.0566 4.44577L29.5362 8.41177C29.8222 8.4493 30.1109 8.49521 30.4018 8.54982L31.1397 4.61847ZM28.9596 4.33321C28.5874 4.30569 28.2181 4.2893 27.8526 4.28371L27.7914 8.28324C28.0787 8.28764 28.3699 8.30053 28.6647 8.32232L28.9596 4.33321ZM26.7418 4.30014C26.3664 4.31713 25.9956 4.34564 25.6301 4.38534L26.062 8.36196C26.3433 8.33141 26.6304 8.30928 26.9226 8.29606L26.7418 4.30014ZM24.5206 4.54275C24.146 4.6087 23.7778 4.68681 23.417 4.77671L24.3841 8.65804C24.6529 8.59105 24.9298 8.53223 25.214 8.4822L24.5206 4.54275ZM22.3235 5.09263C21.9549 5.21444 21.5952 5.34948 21.2458 5.4974L22.8051 9.18095C23.0521 9.0764 23.3101 8.97935 23.5785 8.89066L22.3235 5.09263ZM20.1913 5.99972C19.8377 6.18828 19.4968 6.3919 19.1706 6.61028L21.3955 9.93438C21.6068 9.79295 21.833 9.65747 22.0735 9.52919L20.1913 5.99972ZM18.1993 7.3416C17.8798 7.61228 17.5792 7.9008 17.3006 8.20673L20.2579 10.9C20.415 10.7276 20.5907 10.5582 20.7851 10.3934L18.1993 7.3416ZM16.5075 9.21577C16.2623 9.58129 16.0464 9.96603 15.8644 10.3687L19.5096 12.0156C19.5962 11.8241 19.7023 11.6334 19.829 11.4446L16.5075 9.21577ZM15.4215 11.6449C15.3132 12.0827 15.2451 12.5324 15.2199 12.9911L19.2139 13.2104C19.2252 13.0037 19.2558 12.8021 19.3045 12.6051L15.4215 11.6449ZM15.2688 14.337C15.323 14.7659 15.4141 15.1949 15.5414 15.6221L19.3748 14.4797C19.3078 14.2551 19.2631 14.0401 19.2371 13.8348L15.2688 14.337ZM15.9913 16.8103C16.1587 17.1741 16.3523 17.5345 16.5713 17.8908L19.9792 15.7966C19.8396 15.5694 19.7223 15.3496 19.6249 15.1378L15.9913 16.8103ZM17.2444 18.8697C17.4729 19.1695 17.7201 19.4664 17.9859 19.7602L20.952 17.0764C20.7578 16.8618 20.5828 16.6512 20.4257 16.4451L17.2444 18.8697ZM18.7814 20.5771C19.0403 20.825 19.3133 21.0708 19.6004 21.3144L22.1883 18.2644C21.9596 18.0704 21.7464 17.8781 21.5479 17.6881L18.7814 20.5771ZM20.4477 21.9955C20.7303 22.2111 21.0246 22.4249 21.3309 22.637L23.6082 19.3486C23.3504 19.17 23.1057 18.9922 22.8737 18.8152L20.4477 21.9955ZM22.2139 23.2225C22.3663 23.3194 22.5213 23.4158 22.679 23.5119L24.7604 20.0961C24.6238 20.0128 24.49 19.9296 24.3592 19.8465L22.2139 23.2225ZM22.679 23.5119C22.8138 23.594 22.9468 23.6764 23.078 23.759L25.2089 20.3739C25.0611 20.2808 24.9116 20.1882 24.7604 20.0961L22.679 23.5119ZM23.8439 24.2571C24.1032 24.4313 24.3547 24.6063 24.5985 24.7819L26.9359 21.5359C26.6564 21.3346 26.3694 21.135 26.075 20.9371L23.8439 24.2571ZM25.3215 25.3213C25.5658 25.5103 25.8013 25.6997 26.028 25.8891L28.5929 22.8197C28.3268 22.5973 28.0521 22.3765 27.769 22.1575L25.3215 25.3213ZM26.7056 26.4789C26.9293 26.6819 27.1428 26.8845 27.3462 27.0865L30.164 24.2475C29.9172 24.0025 29.6605 23.7589 29.394 23.5171L26.7056 26.4789ZM27.9545 27.7203C28.1564 27.9417 28.346 28.1615 28.5236 28.3794L31.6243 25.8525C31.3982 25.575 31.16 25.299 30.9097 25.0246L27.9545 27.7203ZM29.0418 29.0566C29.2099 29.2916 29.3635 29.5231 29.5029 29.7507L32.9137 27.661C32.7224 27.3488 32.516 27.038 32.2948 26.7289L29.0418 29.0566ZM29.8986 30.4585C30.0223 30.7037 30.1286 30.9424 30.2186 31.1739L33.9467 29.7244C33.8078 29.3672 33.6485 29.011 33.4698 28.6568L29.8986 30.4585ZM30.4516 31.8867C30.5154 32.1297 30.5598 32.3617 30.5869 32.5822L34.5571 32.0947C34.5069 31.6864 34.4274 31.2777 34.3203 30.8702L30.4516 31.8867ZM30.6174 33.2431C30.6097 33.4596 30.5837 33.6637 30.5418 33.8558L34.4497 34.7091C34.5445 34.2749 34.5989 33.8326 34.6149 33.3857L30.6174 33.2431ZM30.3617 34.4171C30.285 34.5943 30.1903 34.7662 30.0761 34.9324L33.3729 37.1975C33.6322 36.8202 33.8528 36.4217 34.033 36.0049L30.3617 34.4171ZM29.6824 35.4051C29.5373 35.5512 29.371 35.6947 29.181 35.8336L31.5413 39.063C31.8935 38.8056 32.2209 38.5256 32.521 38.2233L29.6824 35.4051ZM28.5816 36.2106C28.3747 36.3229 28.1481 36.43 27.9008 36.5301L29.4023 40.2376C29.7809 40.0843 30.1436 39.9139 30.4892 39.7264L28.5816 36.2106ZM27.1556 36.7904C26.9062 36.865 26.6412 36.9329 26.3601 36.9931L27.1977 40.9044C27.5775 40.8231 27.9457 40.7292 28.3018 40.6226L27.1556 36.7904ZM25.5247 37.1415C25.2542 37.1803 24.972 37.2126 24.6778 37.2376L25.0166 41.2232C25.3845 41.1919 25.7436 41.1511 26.0935 41.1008L25.5247 37.1415ZM23.8068 37.2888C23.5184 37.2986 23.2203 37.3019 22.9125 37.2984L22.8667 41.2981C23.2328 41.3023 23.5914 41.2984 23.9424 41.2865L23.8068 37.2888ZM22.0191 37.2699C21.7266 37.2549 21.4265 37.2341 21.1187 37.2072L20.7705 41.192C21.1244 41.2229 21.4722 41.2471 21.8138 41.2647L22.0191 37.2699ZM20.1997 37.1113C19.9067 37.076 19.6075 37.0354 19.3022 36.9895L18.7073 40.945C19.0502 40.9966 19.3879 41.0424 19.7205 41.0825L20.1997 37.1113ZM18.3798 36.8376C18.0851 36.785 17.7851 36.7276 17.4798 36.6652L16.6797 40.5844C17.0165 40.6532 17.3488 40.7168 17.6766 40.7753L18.3798 36.8376ZM16.5593 36.4659C16.2644 36.3985 15.9649 36.3267 15.6609 36.2504L14.6869 40.13C15.0178 40.2131 15.3448 40.2915 15.6679 40.3653L16.5593 36.4659ZM14.741 36.0093C14.4478 35.9294 14.1508 35.8454 13.8498 35.7573L12.726 39.5962C13.0502 39.6911 13.371 39.7818 13.6883 39.8683L14.741 36.0093ZM12.9351 35.4805C12.6428 35.3892 12.347 35.2942 12.0477 35.1953L10.793 38.9934C11.1127 39.0991 11.4293 39.2008 11.7428 39.2987L12.9351 35.4805ZM11.1472 34.8898C10.9954 34.837 10.8427 34.7833 10.6892 34.7285L9.34562 38.4961C9.50874 38.5543 9.6711 38.6115 9.83268 38.6677L11.1472 34.8898Z" fill="#F900FE"/>
</svg>
