<svg width="107" height="107" viewBox="0 0 107 107" fill="none" xmlns="http://www.w3.org/2000/svg">
<rect width="106" height="107" rx="12" fill="#C1F8B0"/>
<path d="M33.0714 39.5924C32.4842 39.5924 31.921 39.8117 31.5057 40.2021C31.0904 40.5925 30.8571 41.1219 30.8571 41.674C30.8571 42.226 31.0904 42.7555 31.5057 43.1459C31.921 43.5362 32.4842 43.7555 33.0714 43.7555H64.0714C64.6587 43.7555 65.2219 43.5362 65.6372 43.1459C66.0524 42.7555 66.2857 42.226 66.2857 41.674C66.2857 41.1219 66.0524 40.5925 65.6372 40.2021C65.2219 39.8117 64.6587 39.5924 64.0714 39.5924H33.0714ZM33.0714 47.9187C32.4842 47.9187 31.921 48.138 31.5057 48.5283C31.0904 48.9187 30.8571 49.4482 30.8571 50.0002V58.3265C30.8571 58.8785 31.0904 59.408 31.5057 59.7984C31.921 60.1887 32.4842 60.408 33.0714 60.408H41.9286C42.5158 60.408 43.079 60.1887 43.4943 59.7984C43.9096 59.408 44.1429 58.8785 44.1429 58.3265V50.0002C44.1429 49.4482 43.9096 48.9187 43.4943 48.5283C43.079 48.138 42.5158 47.9187 41.9286 47.9187H33.0714ZM35.2857 56.2449V52.0818H39.7143V56.2449H35.2857ZM50.7857 47.9187C50.1985 47.9187 49.6352 48.138 49.22 48.5283C48.8047 48.9187 48.5714 49.4482 48.5714 50.0002C48.5714 50.5523 48.8047 51.0817 49.22 51.4721C49.6352 51.8625 50.1985 52.0818 50.7857 52.0818H64.0714C64.6587 52.0818 65.2219 51.8625 65.6372 51.4721C66.0524 51.0817 66.2857 50.5523 66.2857 50.0002C66.2857 49.4482 66.0524 48.9187 65.6372 48.5283C65.2219 48.138 64.6587 47.9187 64.0714 47.9187H50.7857ZM50.7857 56.2449C50.1985 56.2449 49.6352 56.4642 49.22 56.8546C48.8047 57.245 48.5714 57.7744 48.5714 58.3265C48.5714 58.8785 48.8047 59.408 49.22 59.7984C49.6352 60.1887 50.1985 60.408 50.7857 60.408H64.0714C64.6587 60.408 65.2219 60.1887 65.6372 59.7984C66.0524 59.408 66.2857 58.8785 66.2857 58.3265C66.2857 57.7744 66.0524 57.245 65.6372 56.8546C65.2219 56.4642 64.6587 56.2449 64.0714 56.2449H50.7857ZM22 35.4293C22 33.221 22.9332 31.1032 24.5942 29.5417C26.2552 27.9803 28.5081 27.103 30.8571 27.103H66.2857C68.6348 27.103 70.8876 27.9803 72.5487 29.5417C74.2097 31.1032 75.1429 33.221 75.1429 35.4293C77.4919 35.4293 79.7448 36.3065 81.4058 37.868C83.0668 39.4295 84 41.5473 84 43.7555V62.4896C84 65.2499 82.8335 67.8972 80.7573 69.849C78.681 71.8009 75.8649 72.8974 72.9286 72.8974H33.0714C30.1351 72.8974 27.319 71.8009 25.2427 69.849C23.1665 67.8972 22 65.2499 22 62.4896V35.4293ZM72.9286 62.4896C72.3413 62.4896 71.7781 62.2703 71.3628 61.8799C70.9476 61.4896 70.7143 60.9601 70.7143 60.408V35.4293C70.7143 34.3252 70.2477 33.2662 69.4172 32.4855C68.5867 31.7048 67.4602 31.2662 66.2857 31.2662H30.8571C29.6826 31.2662 28.5562 31.7048 27.7257 32.4855C26.8952 33.2662 26.4286 34.3252 26.4286 35.4293V62.4896C26.4286 64.1458 27.1284 65.7342 28.3742 66.9053C29.62 68.0764 31.3096 68.7343 33.0714 68.7343H72.9286C74.6904 68.7343 76.38 68.0764 77.6258 66.9053C78.8716 65.7342 79.5714 64.1458 79.5714 62.4896V43.7555C79.5714 42.6514 79.1048 41.5925 78.2743 40.8118C77.4438 40.031 76.3174 39.5924 75.1429 39.5924V60.408C75.1429 60.9601 74.9096 61.4896 74.4943 61.8799C74.0791 62.2703 73.5158 62.4896 72.9286 62.4896Z" fill="black"/>
</svg>
