<svg width="106" height="107" viewBox="0 0 106 107" fill="none" xmlns="http://www.w3.org/2000/svg">
<rect width="106" height="107" rx="12" fill="#C1F8B0"/>
<path fill-rule="evenodd" clip-rule="evenodd" d="M80.8571 26.1685H57.2857L55.7857 26.76L53 29.2837L50.2143 26.76L48.7143 26.1685H25.1429L23 28.1401V67.5739L25.1429 69.5456H47.8143L51.5 72.8974H54.5L58.1857 69.5456H80.8571L83 67.5739V28.1401L80.8571 26.1685ZM50.8571 66.8641L50.0857 66.1937L48.7143 65.6022H27.2857V30.1118H47.8143L50.9857 33.0299L50.8571 66.8641ZM78.7143 65.6022H57.2857L55.7857 66.1937L55.1857 66.7063V32.8722L58.1857 30.1118H78.7143V65.6022ZM44.4286 37.9986H31.5714V41.9419H44.4286V37.9986ZM44.4286 53.7721H31.5714V57.7154H44.4286V53.7721ZM31.5714 45.8853H44.4286V49.8287H31.5714V45.8853ZM74.4286 37.9986H61.5714V41.9419H74.4286V37.9986ZM61.5714 45.8853H74.4286V49.8287H61.5714V45.8853ZM61.5714 53.7721H74.4286V57.7154H61.5714V53.7721Z" fill="black"/>
</svg>
